<svg xmlns="http://www.w3.org/2000/svg" xmlns:xlink="http://www.w3.org/1999/xlink" width="1022.33" height="762.37"><g transform="translate(20 20)"><path d="M482 296h58" stroke="#fcc438" stroke-width="2" fill="none"/><path d="M482 297h-.04l.04-1-.04-1h.04zM540 296l-14.27 4.64v-9.28z" fill="#fcc438"/><path d="M540 294.95v2.1L524.73 302v-12zm-13.27 4.3l10.03-3.25-10.03-3.26z" fill="#fcc438"/><path d="M688 105c0 35.9-30.44 65-68 65s-68-29.1-68-65 30.44-65 68-65 68 29.1 68 65z" fill="#a3d977"/><use xlink:href="#a" transform="matrix(1,0,0,1,557,45) translate(44.025 63.6)"/><path d="M620 170v45" stroke="#fcc438" stroke-width="2" fill="none"/><path d="M620 170h1-2v-.04zM620 215l-4.64-14.27h9.28z" fill="#fcc438"/><path d="M621.05 215h-2.1L614 199.73h12zm-4.3-13.27l3.25 10.03 3.26-10.03z" fill="#fcc438"/><path d="M760 241c0-2.76 2.24-5 5-5h150c2.76 0 5 2.24 5 5v110c0 2.76-2.24 5-5 5H765c-2.76 0-5-2.24-5-5z" stroke="#fcc438" stroke-width="2" fill="#fff"/><use xlink:href="#b" transform="matrix(1,0,0,1,765,241) translate(23.275 58.6)"/><path d="M700 309.45V282.4h-13.44c-1.76-8.1-5.28-18-10.56-25.6l8.64-8.6-18.72-18.94-9.12 8.74c-7.52-5.18-15.52-8.74-26.24-10.53V215H604v12.8c-8 1.78-16.16 5.18-23.2 9.88l-8-8.26-18.72 18.95 8.16 7.78c-5.44 7.94-9.12 18.14-10.88 26.24H540v27.05h11.68c1.76 10.85 5.28 17.5 10.24 24.94l-8.64 8.9L572 362.42l8.16-8.75c7.2 4.86 15.84 8.6 23.84 10.37V377h26.56v-12.64c10.72-1.78 19.04-5.67 26.88-11l9.28 9.06 18.88-18.95-9.28-9.72c4.8-7.13 8.16-16.2 9.92-24.3H700zm-80.96 36.6c-27.04 0-48.8-22.02-48.8-49.4 0-27.22 21.76-49.25 48.8-49.25 26.88 0 48.64 22.03 48.64 49.25 0 27.38-21.76 49.4-48.64 49.4z" fill="#fcc438"/><use xlink:href="#c" transform="matrix(1,0,0,1,540,357) translate(80 15.4)"/><path d="M578.27 283c0-2.76 2.24-5 5-5h73.46c2.76 0 5 2.24 5 5v26c0 2.76-2.24 5-5 5h-73.46c-2.76 0-5-2.24-5-5z" fill="none"/><use xlink:href="#d" transform="matrix(1,0,0,1,578.275,278) translate(0.2749999999999986 14.4)"/><use xlink:href="#e" transform="matrix(1,0,0,1,578.275,278) translate(12.074999999999996 36)"/><path d="M700 296h60" stroke="#fcc438" stroke-width="2" fill="none"/><path d="M700 297v-2zM760 296l-14.27 4.64v-9.28z" fill="#fcc438"/><path d="M760 294.95v2.1L744.73 302v-12zm-13.27 4.3l10.03-3.25-10.03-3.26z" fill="#fcc438"/><path d="M482 296c0 38.66-31.34 70-70 70s-70-31.34-70-70 31.34-70 70-70 70 31.34 70 70z" fill="#ccc"/><use xlink:href="#f" transform="matrix(1,0,0,1,347,231) translate(28.574999999999996 68.60000000000001)"/><use xlink:href="#c" transform="matrix(1,0,0,1,947.3333333333376,687.3669572719009) translate(15 20.4)"/><use xlink:href="#c" transform="matrix(1,0,0,1,5,5) translate(15 20.4)"/><defs><path fill="#222" d="M30-248c118-7 216 8 213 122C240-48 200 0 122 0H30v-248zM63-27c89 8 146-16 146-99s-60-101-146-95v194" id="g"/><path fill="#222" d="M141-36C126-15 110 5 73 4 37 3 15-17 15-53c-1-64 63-63 125-63 3-35-9-54-41-54-24 1-41 7-42 31l-33-3c5-37 33-52 76-52 45 0 72 20 72 64v82c-1 20 7 32 28 27v20c-31 9-61-2-59-35zM48-53c0 20 12 33 32 33 41-3 63-29 60-74-43 2-92-5-92 41" id="h"/><path fill="#222" d="M59-47c-2 24 18 29 38 22v24C64 9 27 4 27-40v-127H5v-23h24l9-43h21v43h35v23H59v120" id="i"/><g id="a"><use transform="matrix(0.05,0,0,0.05,0,0)" xlink:href="#g"/><use transform="matrix(0.05,0,0,0.05,12.950000000000001,0)" xlink:href="#h"/><use transform="matrix(0.05,0,0,0.05,22.950000000000003,0)" xlink:href="#i"/><use transform="matrix(0.05,0,0,0.05,27.950000000000003,0)" xlink:href="#h"/></g><path d="M197 0v-115H63V0H30v-248h33v105h134v-105h34V0h-34" id="j"/><path d="M127-220V0H93v-220H8v-28h204v28h-85" id="k"/><path d="M240 0l2-218c-23 76-54 145-80 218h-23L58-218 59 0H30v-248h44l77 211c21-75 51-140 76-211h43V0h-30" id="l"/><path d="M30 0v-248h33v221h125V0H30" id="m"/><path d="M16-82v-28h88v28H16" id="n"/><path d="M30-248c87 1 191-15 191 75 0 78-77 80-158 76V0H30v-248zm33 125c57 0 124 11 124-50 0-59-68-47-124-48v98" id="o"/><path d="M205 0l-28-72H64L36 0H1l101-248h38L239 0h-34zm-38-99l-47-123c-12 45-31 82-46 123h93" id="p"/><path d="M143 4C61 4 22-44 18-125c-5-107 100-154 193-111 17 8 29 25 37 43l-32 9c-13-25-37-40-76-40-61 0-88 39-88 99 0 61 29 100 91 101 35 0 62-11 79-27v-45h-74v-28h105v86C228-13 192 4 143 4" id="q"/><path d="M30 0v-248h187v28H63v79h144v27H63v87h162V0H30" id="r"/><g id="b"><use transform="matrix(0.05,0,0,0.05,0,0)" xlink:href="#j"/><use transform="matrix(0.05,0,0,0.05,12.950000000000001,0)" xlink:href="#k"/><use transform="matrix(0.05,0,0,0.05,23.900000000000002,0)" xlink:href="#l"/><use transform="matrix(0.05,0,0,0.05,38.85,0)" xlink:href="#m"/><use transform="matrix(0.05,0,0,0.05,48.85,0)" xlink:href="#n"/><use transform="matrix(0.05,0,0,0.05,54.800000000000004,0)" xlink:href="#o"/><use transform="matrix(0.05,0,0,0.05,65.45,0)" xlink:href="#p"/><use transform="matrix(0.05,0,0,0.05,77.45,0)" xlink:href="#q"/><use transform="matrix(0.05,0,0,0.05,91.45,0)" xlink:href="#r"/></g><path fill="#ccc" d="M136-208V0H84v-208H4v-40h212v40h-80" id="s"/><path fill="#ccc" d="M185-48c-13 30-37 53-82 52C43 2 14-33 14-96s30-98 90-98c62 0 83 45 84 108H66c0 31 8 55 39 56 18 0 30-7 34-22zm-45-69c5-46-57-63-70-21-2 6-4 13-4 21h74" id="t"/><path fill="#ccc" d="M220-157c-53 9-28 100-34 157h-49v-107c1-27-5-49-29-50C55-147 81-57 75 0H25l-1-190h47c2 12-1 28 3 38 10-53 101-56 108 0 13-22 24-43 59-42 82 1 51 116 57 194h-49v-107c-1-25-5-48-29-50" id="u"/><path fill="#ccc" d="M135-194c53 0 70 44 70 98 0 56-19 98-73 100-31 1-45-17-59-34 3 33 2 69 2 105H25l-1-265h48c2 10 0 23 3 31 11-24 29-35 60-35zM114-30c33 0 39-31 40-66 0-38-9-64-40-64-56 0-55 130 0 130" id="v"/><path fill="#ccc" d="M25 0v-261h50V0H25" id="w"/><path fill="#ccc" d="M133-34C117-15 103 5 69 4 32 3 11-16 11-54c-1-60 55-63 116-61 1-26-3-47-28-47-18 1-26 9-28 27l-52-2c7-38 36-58 82-57s74 22 75 68l1 82c-1 14 12 18 25 15v27c-30 8-71 5-69-32zm-48 3c29 0 43-24 42-57-32 0-66-3-65 30 0 17 8 27 23 27" id="x"/><path fill="#ccc" d="M115-3C79 11 28 4 28-45v-112H4v-33h27l15-45h31v45h36v33H77v99c-1 23 16 31 38 25v30" id="y"/><path fill="#ccc" d="M14-72v-43h91v43H14" id="z"/><g id="d"><use transform="matrix(0.05,0,0,0.05,0,0)" xlink:href="#s"/><use transform="matrix(0.05,0,0,0.05,9.600000000000001,0)" xlink:href="#t"/><use transform="matrix(0.05,0,0,0.05,19.6,0)" xlink:href="#u"/><use transform="matrix(0.05,0,0,0.05,35.6,0)" xlink:href="#v"/><use transform="matrix(0.05,0,0,0.05,46.550000000000004,0)" xlink:href="#w"/><use transform="matrix(0.05,0,0,0.05,51.550000000000004,0)" xlink:href="#x"/><use transform="matrix(0.05,0,0,0.05,61.550000000000004,0)" xlink:href="#y"/><use transform="matrix(0.05,0,0,0.05,67.5,0)" xlink:href="#t"/><use transform="matrix(0.05,0,0,0.05,77.5,0)" xlink:href="#z"/></g><path fill="#ccc" d="M24 0v-248h195v40H76v63h132v40H76v65h150V0H24" id="A"/><path fill="#ccc" d="M135-194c87-1 58 113 63 194h-50c-7-57 23-157-34-157-59 0-34 97-39 157H25l-1-190h47c2 12-1 28 3 38 12-26 28-41 61-42" id="B"/><path fill="#ccc" d="M195-6C206 82 75 100 31 46c-4-6-6-13-8-21l49-6c3 16 16 24 34 25 40 0 42-37 40-79-11 22-30 35-61 35-53 0-70-43-70-97 0-56 18-96 73-97 30 0 46 14 59 34l2-30h47zm-90-29c32 0 41-27 41-63 0-35-9-62-40-62-32 0-39 29-40 63 0 36 9 62 39 62" id="C"/><path fill="#ccc" d="M25-224v-37h50v37H25zM25 0v-190h50V0H25" id="D"/><g id="e"><use transform="matrix(0.05,0,0,0.05,0,0)" xlink:href="#A"/><use transform="matrix(0.05,0,0,0.05,12,0)" xlink:href="#B"/><use transform="matrix(0.05,0,0,0.05,22.950000000000003,0)" xlink:href="#C"/><use transform="matrix(0.05,0,0,0.05,33.900000000000006,0)" xlink:href="#D"/><use transform="matrix(0.05,0,0,0.05,38.900000000000006,0)" xlink:href="#B"/><use transform="matrix(0.05,0,0,0.05,49.85000000000001,0)" xlink:href="#t"/></g><path d="M100-194c63 0 86 42 84 106H49c0 40 14 67 53 68 26 1 43-12 49-29l28 8c-11 28-37 45-77 45C44 4 14-33 15-96c1-61 26-98 85-98zm52 81c6-60-76-77-97-28-3 7-6 17-6 28h103" id="E"/><path d="M210-169c-67 3-38 105-44 169h-31v-121c0-29-5-50-35-48C34-165 62-65 56 0H25l-1-190h30c1 10-1 24 2 32 10-44 99-50 107 0 11-21 27-35 58-36 85-2 47 119 55 194h-31v-121c0-29-5-49-35-48" id="F"/><path d="M115-194c55 1 70 41 70 98S169 2 115 4C84 4 66-9 55-30l1 105H24l-1-265h31l2 30c10-21 28-34 59-34zm-8 174c40 0 45-34 45-75s-6-73-45-74c-42 0-51 32-51 76 0 43 10 73 51 73" id="G"/><path d="M24 0v-261h32V0H24" id="H"/><path d="M141-36C126-15 110 5 73 4 37 3 15-17 15-53c-1-64 63-63 125-63 3-35-9-54-41-54-24 1-41 7-42 31l-33-3c5-37 33-52 76-52 45 0 72 20 72 64v82c-1 20 7 32 28 27v20c-31 9-61-2-59-35zM48-53c0 20 12 33 32 33 41-3 63-29 60-74-43 2-92-5-92 41" id="I"/><path d="M59-47c-2 24 18 29 38 22v24C64 9 27 4 27-40v-127H5v-23h24l9-43h21v43h35v23H59v120" id="J"/><g id="f"><use transform="matrix(0.05,0,0,0.05,0,0)" xlink:href="#k"/><use transform="matrix(0.05,0,0,0.05,8.950000000000001,0)" xlink:href="#E"/><use transform="matrix(0.05,0,0,0.05,18.950000000000003,0)" xlink:href="#F"/><use transform="matrix(0.05,0,0,0.05,33.900000000000006,0)" xlink:href="#G"/><use transform="matrix(0.05,0,0,0.05,43.900000000000006,0)" xlink:href="#H"/><use transform="matrix(0.05,0,0,0.05,47.85000000000001,0)" xlink:href="#I"/><use transform="matrix(0.05,0,0,0.05,57.85,0)" xlink:href="#J"/><use transform="matrix(0.05,0,0,0.05,62.85,0)" xlink:href="#E"/></g></defs></g></svg>