
<svg xmlns="http://www.w3.org/2000/svg" xmlns:xlink="http://www.w3.org/1999/xlink" width="1000" height="520"><g transform="translate(-140 -60)"><path d="M400 160c0 22.1-17.9 40-40 40s-40-17.9-40-40 17.9-40 40-40 40 17.9 40 40z" fill="#66d15c"/><use xlink:href="#a" transform="matrix(1,0,0,1,325,125) translate(13.185185185185183 37.66666666666667)"/><path d="M400 380c0 22.1-17.9 40-40 40s-40-17.9-40-40 17.9-40 40-40 40 17.9 40 40z" fill="#66d15c"/><use xlink:href="#b" transform="matrix(1,0,0,1,325,345) translate(15.777777777777779 37.66666666666667)"/><path d="M389.93 186.46l31.98 32.73" stroke="#66d15c" stroke-width="2" fill="none"/><path d="M390.65 185.76l-.72.7.64-.78z" fill="#66d15c"/><path d="M421.9 219.2l-13.28-6.97 6.64-6.48z" stroke="#66d15c" stroke-width="2" fill="#66d15c"/><path d="M386.1 349.77l32.4-32.4" stroke="#66d15c" stroke-width="2" fill="none"/><path d="M386.1 349.77l-.78-.64.07-.07z" fill="#66d15c"/><path d="M418.5 317.36l-6.8 13.36-6.56-6.55z" stroke="#66d15c" stroke-width="2" fill="#66d15c"/><path d="M340 270c0 22.1-17.9 40-40 40s-40-17.9-40-40 17.9-40 40-40 40 17.9 40 40z" fill="#66d15c"/><use xlink:href="#c" transform="matrix(1,0,0,1,265,235) translate(11.685185185185187 37.66666666666667)"/><path d="M340 270h60" stroke="#66d15c" stroke-width="2" fill="none"/><path d="M340 271h-.06l.06-1-.04-1h.04z" fill="#66d15c"/><path d="M400 270l-14.27 4.64v-9.28z" stroke="#66d15c" stroke-width="2" fill="#66d15c"/><path d="M540 270c0 38.66-31.34 70-70 70s-70-31.34-70-70 31.34-70 70-70 70 31.34 70 70z" fill="#66d15c"/><use xlink:href="#d" transform="matrix(1,0,0,1,405,205) translate(28.574999999999996 68.60000000000001)"/><path d="M540 270h80" stroke="#ccc" stroke-width="2" fill="none"/><path d="M540 271h-.04l.04-1-.04-1h.04zM620 270l-14.27 4.64v-9.28z" fill="#ccc"/><path d="M620.04 268.96L620 270l.04 1.04-15.3 4.97v-12zm-13.3 4.3l10.02-3.26-10.03-3.26z" fill="#ccc"/><path d="M980 270c0 38.66-31.34 70-70 70s-70-31.34-70-70 31.34-70 70-70 70 31.34 70 70z" fill="#fcc438"/><use xlink:href="#e" transform="matrix(1,0,0,1,845,205) translate(42.4 68.60000000000001)"/><path d="M760 270c0 38.66-31.34 70-70 70s-70-31.34-70-70 31.34-70 70-70 70 31.34 70 70z" fill="#ccc"/><use xlink:href="#f" transform="matrix(1,0,0,1,625,205) translate(23.275 57.8)"/><use xlink:href="#g" transform="matrix(1,0,0,1,625,205) translate(35.074999999999996 79.4)"/><path d="M840 270h-79" stroke="#ccc" stroke-width="2" fill="none"/><path d="M840 270l.04 1H840v-2h.04zM775.27 274.64L761 270l14.27-4.64z" fill="#ccc"/><path d="M776.27 276l-16.3-5.28.03-.72-.03-.72 16.3-5.3zm-12.03-6l10.03 3.26v-6.52z" fill="#ccc"/><path d="M690 340v80" stroke="#ccc" stroke-width="2" fill="none"/><path d="M690 340l1-.04v.04h-2v-.04zM690 420l-4.64-14.27h9.28z" fill="#ccc"/><path d="M691.05 420h-2.1L684 404.73h12zm-4.3-13.27l3.25 10.03 3.26-10.03z" fill="#ccc"/><path d="M610 425c0-2.76 2.24-5 5-5h150c2.76 0 5 2.24 5 5v110c0 2.76-2.24 5-5 5H615c-2.76 0-5-2.24-5-5z" fill="url(#h)"/><use xlink:href="#i" transform="matrix(1,0,0,1,615,425) translate(50.575 58.6)"/><path d="M160 85c0-2.76 2.24-5 5-5h50c2.76 0 5 2.24 5 5v30c0 2.76-2.24 5-5 5h-50c-2.76 0-5-2.24-5-5z" fill="none"/><use xlink:href="#j" transform="matrix(1,0,0,1,165,85) translate(25 20.4)"/><path d="M1060 525c0-2.76 2.24-5 5-5h50c2.76 0 5 2.24 5 5v30c0 2.76-2.24 5-5 5h-50c-2.76 0-5-2.24-5-5z" fill="none"/><use xlink:href="#j" transform="matrix(1,0,0,1,1065,525) translate(25 20.4)"/><path d="M408.98 236h122.04M409.04 304.38h122.03" stroke="#222" stroke-width="2" fill="none"/><defs><path d="M197 0v-115H63V0H30v-248h33v105h134v-105h34V0h-34" id="k"/><path d="M100-194c63 0 86 42 84 106H49c0 40 14 67 53 68 26 1 43-12 49-29l28 8c-11 28-37 45-77 45C44 4 14-33 15-96c1-61 26-98 85-98zm52 81c6-60-76-77-97-28-3 7-6 17-6 28h103" id="l"/><path d="M141-36C126-15 110 5 73 4 37 3 15-17 15-53c-1-64 63-63 125-63 3-35-9-54-41-54-24 1-41 7-42 31l-33-3c5-37 33-52 76-52 45 0 72 20 72 64v82c-1 20 7 32 28 27v20c-31 9-61-2-59-35zM48-53c0 20 12 33 32 33 41-3 63-29 60-74-43 2-92-5-92 41" id="m"/><path d="M85-194c31 0 48 13 60 33l-1-100h32l1 261h-30c-2-10 0-23-3-31C134-8 116 4 85 4 32 4 16-35 15-94c0-66 23-100 70-100zm9 24c-40 0-46 34-46 75 0 40 6 74 45 74 42 0 51-32 51-76 0-42-9-74-50-73" id="n"/><path d="M114-163C36-179 61-72 57 0H25l-1-190h30c1 12-1 29 2 39 6-27 23-49 58-41v29" id="o"/><g id="a"><use transform="matrix(0.03703703703703704,0,0,0.03703703703703704,0,0)" xlink:href="#k"/><use transform="matrix(0.03703703703703704,0,0,0.03703703703703704,9.592592592592593,0)" xlink:href="#l"/><use transform="matrix(0.03703703703703704,0,0,0.03703703703703704,17,0)" xlink:href="#m"/><use transform="matrix(0.03703703703703704,0,0,0.03703703703703704,24.407407407407405,0)" xlink:href="#n"/><use transform="matrix(0.03703703703703704,0,0,0.03703703703703704,31.814814814814813,0)" xlink:href="#l"/><use transform="matrix(0.03703703703703704,0,0,0.03703703703703704,39.22222222222223,0)" xlink:href="#o"/></g><path d="M63-220v92h138v28H63V0H30v-248h175v28H63" id="p"/><path d="M100-194c62-1 85 37 85 99 1 63-27 99-86 99S16-35 15-95c0-66 28-99 85-99zM99-20c44 1 53-31 53-75 0-43-8-75-51-75s-53 32-53 75 10 74 51 75" id="q"/><path d="M59-47c-2 24 18 29 38 22v24C64 9 27 4 27-40v-127H5v-23h24l9-43h21v43h35v23H59v120" id="r"/><g id="b"><use transform="matrix(0.03703703703703704,0,0,0.03703703703703704,0,0)" xlink:href="#p"/><use transform="matrix(0.03703703703703704,0,0,0.03703703703703704,8.111111111111112,0)" xlink:href="#q"/><use transform="matrix(0.03703703703703704,0,0,0.03703703703703704,15.51851851851852,0)" xlink:href="#q"/><use transform="matrix(0.03703703703703704,0,0,0.03703703703703704,22.925925925925927,0)" xlink:href="#r"/><use transform="matrix(0.03703703703703704,0,0,0.03703703703703704,26.629629629629633,0)" xlink:href="#l"/><use transform="matrix(0.03703703703703704,0,0,0.03703703703703704,34.03703703703704,0)" xlink:href="#o"/></g><path d="M212-179c-10-28-35-45-73-45-59 0-87 40-87 99 0 60 29 101 89 101 43 0 62-24 78-52l27 14C228-24 195 4 139 4 59 4 22-46 18-125c-6-104 99-153 187-111 19 9 31 26 39 46" id="s"/><path d="M117-194c89-4 53 116 60 194h-32v-121c0-31-8-49-39-48C34-167 62-67 57 0H25l-1-190h30c1 10-1 24 2 32 11-22 29-35 61-36" id="t"/><g id="c"><use transform="matrix(0.03703703703703704,0,0,0.03703703703703704,0,0)" xlink:href="#s"/><use transform="matrix(0.03703703703703704,0,0,0.03703703703703704,9.592592592592593,0)" xlink:href="#q"/><use transform="matrix(0.03703703703703704,0,0,0.03703703703703704,17,0)" xlink:href="#t"/><use transform="matrix(0.03703703703703704,0,0,0.03703703703703704,24.407407407407405,0)" xlink:href="#r"/><use transform="matrix(0.03703703703703704,0,0,0.03703703703703704,28.111111111111114,0)" xlink:href="#l"/><use transform="matrix(0.03703703703703704,0,0,0.03703703703703704,35.51851851851852,0)" xlink:href="#t"/><use transform="matrix(0.03703703703703704,0,0,0.03703703703703704,42.925925925925924,0)" xlink:href="#r"/></g><path d="M127-220V0H93v-220H8v-28h204v28h-85" id="u"/><path d="M210-169c-67 3-38 105-44 169h-31v-121c0-29-5-50-35-48C34-165 62-65 56 0H25l-1-190h30c1 10-1 24 2 32 10-44 99-50 107 0 11-21 27-35 58-36 85-2 47 119 55 194h-31v-121c0-29-5-49-35-48" id="v"/><path d="M115-194c55 1 70 41 70 98S169 2 115 4C84 4 66-9 55-30l1 105H24l-1-265h31l2 30c10-21 28-34 59-34zm-8 174c40 0 45-34 45-75s-6-73-45-74c-42 0-51 32-51 76 0 43 10 73 51 73" id="w"/><path d="M24 0v-261h32V0H24" id="x"/><g id="d"><use transform="matrix(0.05,0,0,0.05,0,0)" xlink:href="#u"/><use transform="matrix(0.05,0,0,0.05,8.950000000000001,0)" xlink:href="#l"/><use transform="matrix(0.05,0,0,0.05,18.950000000000003,0)" xlink:href="#v"/><use transform="matrix(0.05,0,0,0.05,33.900000000000006,0)" xlink:href="#w"/><use transform="matrix(0.05,0,0,0.05,43.900000000000006,0)" xlink:href="#x"/><use transform="matrix(0.05,0,0,0.05,47.85000000000001,0)" xlink:href="#m"/><use transform="matrix(0.05,0,0,0.05,57.85,0)" xlink:href="#r"/><use transform="matrix(0.05,0,0,0.05,62.85,0)" xlink:href="#l"/></g><path d="M30-248c118-7 216 8 213 122C240-48 200 0 122 0H30v-248zM63-27c89 8 146-16 146-99s-60-101-146-95v194" id="y"/><path d="M205 0l-28-72H64L36 0H1l101-248h38L239 0h-34zm-38-99l-47-123c-12 45-31 82-46 123h93" id="z"/><g id="e"><use transform="matrix(0.05,0,0,0.05,0,0)" xlink:href="#y"/><use transform="matrix(0.05,0,0,0.05,12.950000000000001,0)" xlink:href="#z"/><use transform="matrix(0.05,0,0,0.05,23.6,0)" xlink:href="#u"/><use transform="matrix(0.05,0,0,0.05,33.2,0)" xlink:href="#z"/></g><path d="M136-208V0H84v-208H4v-40h212v40h-80" id="A"/><path d="M185-48c-13 30-37 53-82 52C43 2 14-33 14-96s30-98 90-98c62 0 83 45 84 108H66c0 31 8 55 39 56 18 0 30-7 34-22zm-45-69c5-46-57-63-70-21-2 6-4 13-4 21h74" id="B"/><path d="M220-157c-53 9-28 100-34 157h-49v-107c1-27-5-49-29-50C55-147 81-57 75 0H25l-1-190h47c2 12-1 28 3 38 10-53 101-56 108 0 13-22 24-43 59-42 82 1 51 116 57 194h-49v-107c-1-25-5-48-29-50" id="C"/><path d="M135-194c53 0 70 44 70 98 0 56-19 98-73 100-31 1-45-17-59-34 3 33 2 69 2 105H25l-1-265h48c2 10 0 23 3 31 11-24 29-35 60-35zM114-30c33 0 39-31 40-66 0-38-9-64-40-64-56 0-55 130 0 130" id="D"/><path d="M25 0v-261h50V0H25" id="E"/><path d="M133-34C117-15 103 5 69 4 32 3 11-16 11-54c-1-60 55-63 116-61 1-26-3-47-28-47-18 1-26 9-28 27l-52-2c7-38 36-58 82-57s74 22 75 68l1 82c-1 14 12 18 25 15v27c-30 8-71 5-69-32zm-48 3c29 0 43-24 42-57-32 0-66-3-65 30 0 17 8 27 23 27" id="F"/><path d="M115-3C79 11 28 4 28-45v-112H4v-33h27l15-45h31v45h36v33H77v99c-1 23 16 31 38 25v30" id="G"/><path d="M14-72v-43h91v43H14" id="H"/><g id="f"><use transform="matrix(0.05,0,0,0.05,0,0)" xlink:href="#A"/><use transform="matrix(0.05,0,0,0.05,9.600000000000001,0)" xlink:href="#B"/><use transform="matrix(0.05,0,0,0.05,19.6,0)" xlink:href="#C"/><use transform="matrix(0.05,0,0,0.05,35.6,0)" xlink:href="#D"/><use transform="matrix(0.05,0,0,0.05,46.550000000000004,0)" xlink:href="#E"/><use transform="matrix(0.05,0,0,0.05,51.550000000000004,0)" xlink:href="#F"/><use transform="matrix(0.05,0,0,0.05,61.550000000000004,0)" xlink:href="#G"/><use transform="matrix(0.05,0,0,0.05,67.5,0)" xlink:href="#B"/><use transform="matrix(0.05,0,0,0.05,77.5,0)" xlink:href="#H"/></g><path d="M24 0v-248h195v40H76v63h132v40H76v65h150V0H24" id="I"/><path d="M135-194c87-1 58 113 63 194h-50c-7-57 23-157-34-157-59 0-34 97-39 157H25l-1-190h47c2 12-1 28 3 38 12-26 28-41 61-42" id="J"/><path d="M195-6C206 82 75 100 31 46c-4-6-6-13-8-21l49-6c3 16 16 24 34 25 40 0 42-37 40-79-11 22-30 35-61 35-53 0-70-43-70-97 0-56 18-96 73-97 30 0 46 14 59 34l2-30h47zm-90-29c32 0 41-27 41-63 0-35-9-62-40-62-32 0-39 29-40 63 0 36 9 62 39 62" id="K"/><path d="M25-224v-37h50v37H25zM25 0v-190h50V0H25" id="L"/><g id="g"><use transform="matrix(0.05,0,0,0.05,0,0)" xlink:href="#I"/><use transform="matrix(0.05,0,0,0.05,12,0)" xlink:href="#J"/><use transform="matrix(0.05,0,0,0.05,22.950000000000003,0)" xlink:href="#K"/><use transform="matrix(0.05,0,0,0.05,33.900000000000006,0)" xlink:href="#L"/><use transform="matrix(0.05,0,0,0.05,38.900000000000006,0)" xlink:href="#J"/><use transform="matrix(0.05,0,0,0.05,49.85000000000001,0)" xlink:href="#B"/></g><linearGradient gradientUnits="userSpaceOnUse" id="h" x1="610" y1="420" x2="739.57" y2="540"><stop offset="0%" stop-color="#fcc438"/><stop offset="20%" stop-color="#fcc438"/><stop offset="100%" stop-color="#66d15c"/></linearGradient><path d="M240 0l2-218c-23 76-54 145-80 218h-23L58-218 59 0H30v-248h44l77 211c21-75 51-140 76-211h43V0h-30" id="M"/><path d="M30 0v-248h33v221h125V0H30" id="N"/><g id="i"><use transform="matrix(0.05,0,0,0.05,0,0)" xlink:href="#k"/><use transform="matrix(0.05,0,0,0.05,12.950000000000001,0)" xlink:href="#u"/><use transform="matrix(0.05,0,0,0.05,23.900000000000002,0)" xlink:href="#M"/><use transform="matrix(0.05,0,0,0.05,38.85,0)" xlink:href="#N"/></g></defs></g></svg>