<svg xmlns="http://www.w3.org/2000/svg" xmlns:xlink="http://www.w3.org/1999/xlink" width="1022.33" height="762.37"><g transform="translate(20 20)"><path d="M482 296h58" stroke="#fcc438" stroke-width="2" fill="none"/><path d="M482 297h-.04l.04-1-.04-1h.04zM540 296l-14.27 4.64v-9.28z" fill="#fcc438"/><path d="M540 294.95v2.1L524.73 302v-12zm-13.27 4.3l10.03-3.25-10.03-3.26z" fill="#fcc438"/><path d="M688 105c0 35.9-30.44 65-68 65s-68-29.1-68-65 30.44-65 68-65 68 29.1 68 65z" fill="#a3d977"/><use xlink:href="#a" transform="matrix(1,0,0,1,557,45) translate(44.025 63.6)"/><path d="M620 170v45" stroke="#fcc438" stroke-width="2" fill="none"/><path d="M620 170h1-2v-.04zM620 215l-4.64-14.27h9.28z" fill="#fcc438"/><path d="M621.05 215h-2.1L614 199.73h12zm-4.3-13.27l3.25 10.03 3.26-10.03z" fill="#fcc438"/><path d="M760 241c0-2.76 2.24-5 5-5h150c2.76 0 5 2.24 5 5v110c0 2.76-2.24 5-5 5H765c-2.76 0-5-2.24-5-5z" stroke="#fcc438" stroke-width="2" fill="#fff"/><use xlink:href="#b" transform="matrix(1,0,0,1,765,241) translate(23.275 58.6)"/><path d="M700 309.45V282.4h-13.44c-1.76-8.1-5.28-18-10.56-25.6l8.64-8.6-18.72-18.94-9.12 8.74c-7.52-5.18-15.52-8.74-26.24-10.53V215H604v12.8c-8 1.78-16.16 5.18-23.2 9.88l-8-8.26-18.72 18.95 8.16 7.78c-5.44 7.94-9.12 18.14-10.88 26.24H540v27.05h11.68c1.76 10.85 5.28 17.5 10.24 24.94l-8.64 8.9L572 362.42l8.16-8.75c7.2 4.86 15.84 8.6 23.84 10.37V377h26.56v-12.64c10.72-1.78 19.04-5.67 26.88-11l9.28 9.06 18.88-18.95-9.28-9.72c4.8-7.13 8.16-16.2 9.92-24.3H700zm-80.96 36.6c-27.04 0-48.8-22.02-48.8-49.4 0-27.22 21.76-49.25 48.8-49.25 26.88 0 48.64 22.03 48.64 49.25 0 27.38-21.76 49.4-48.64 49.4z" fill="#fcc438"/><use xlink:href="#c" transform="matrix(1,0,0,1,540,357) translate(80 15.4)"/><path d="M578.27 283c0-2.76 2.24-5 5-5h73.46c2.76 0 5 2.24 5 5v26c0 2.76-2.24 5-5 5h-73.46c-2.76 0-5-2.24-5-5z" fill="none"/><use xlink:href="#d" transform="matrix(1,0,0,1,578.275,278) translate(0.2749999999999986 14.4)"/><use xlink:href="#e" transform="matrix(1,0,0,1,578.275,278) translate(12.074999999999996 36)"/><path d="M700 296h60" stroke="#fcc438" stroke-width="2" fill="none"/><path d="M700 297v-2zM760 296l-14.27 4.64v-9.28z" fill="#fcc438"/><path d="M760 294.95v2.1L744.73 302v-12zm-13.27 4.3l10.03-3.25-10.03-3.26z" fill="#fcc438"/><path d="M758.55 47c0-2.76 2.24-5 5-5H895c2.76 0 5 2.24 5 5v50c0 2.76-2.24 5-5 5H763.55c-2.76 0-5-2.24-5-5z" fill="none"/><use xlink:href="#f" transform="matrix(1,0,0,1,758.55,42) translate(48.97530864197529 34.888888888888886)"/><path d="M380 153c0 22.1-17.9 40-40 40s-40-17.9-40-40 17.9-40 40-40 40 17.9 40 40z" fill="#ccc"/><use xlink:href="#g" transform="matrix(1,0,0,1,305,118) translate(6.166666666666664 37.66666666666667)"/><path d="M220 242.5c0 16.57-13.43 30-30 30s-30-13.43-30-30 13.43-30 30-30 30 13.43 30 30z" fill="#ccc"/><use xlink:href="#h" transform="matrix(1,0,0,1,165,217.5) translate(-1.6111111111111143 27.666666666666668)"/><path d="M300 93c0 16.57-13.43 30-30 30s-30-13.43-30-30 13.43-30 30-30 30 13.43 30 30z" fill="#ccc"/><use xlink:href="#h" transform="matrix(1,0,0,1,245,68) translate(-1.6111111111111143 27.666666666666668)"/><path d="M235 153c0 16.57-13.43 30-30 30s-30-13.43-30-30 13.43-30 30-30 30 13.43 30 30z" fill="#ccc"/><use xlink:href="#h" transform="matrix(1,0,0,1,180,128) translate(-1.6111111111111143 27.666666666666668)"/><path d="M120 253c0 11.05-8.95 20-20 20s-20-8.95-20-20 8.95-20 20-20 20 8.95 20 20z" fill="#ccc"/><use xlink:href="#i" transform="matrix(1,0,0,1,85,238) translate(-0.5370370370370381 17.666666666666668)"/><path d="M300 213c0 11.05-8.95 20-20 20s-20-8.95-20-20 8.95-20 20-20 20 8.95 20 20z" fill="#ccc"/><use xlink:href="#i" transform="matrix(1,0,0,1,265,198) translate(-0.5370370370370381 17.666666666666668)"/><path d="M160 117c0 11.05-8.95 20-20 20s-20-8.95-20-20 8.95-20 20-20 20 8.95 20 20z" fill="#ccc"/><use xlink:href="#i" transform="matrix(1,0,0,1,125,102) translate(-0.5370370370370381 17.666666666666668)"/><path d="M220 83c0 11.05-8.95 20-20 20s-20-8.95-20-20 8.95-20 20-20 20 8.95 20 20z" fill="#ccc"/><use xlink:href="#i" transform="matrix(1,0,0,1,185,68) translate(-0.5370370370370381 17.666666666666668)"/><path d="M360 73c0 11.05-8.95 20-20 20s-20-8.95-20-20 8.95-20 20-20 20 8.95 20 20z" fill="#ccc"/><use xlink:href="#i" transform="matrix(1,0,0,1,325,58) translate(-0.5370370370370381 17.666666666666668)"/><path d="M363.16 185.53l23.23 36.03 3.18 8.15" stroke="#ccc" stroke-width="2" fill="none"/><path d="M390.54 229.4l-.96.3.9-.43z" fill="#ccc"/><path d="M294.32 110.43L309.68 127" stroke="#ccc" stroke-width="2" fill="none"/><path d="M295.05 109.75l-.73.68.57-.86z" fill="#ccc"/><path d="M235 153l3.42.13 3.43.38 3.57.68 3.88 1.02 4.58 1.6 7.05 3.06 15.45 7.2 3.7 1.3 3 .78 2.6.5 2.4.26 2.32.08 2.26-.08 2.3-.26 2.34-.44 2.46-.65 2.65-.9.4-.16" stroke="#ccc" stroke-width="2" fill="none"/><path d="M235.16 152l-.16 1-.04-1.02zM303.17 168.44l-.22.04-.16-1z" fill="#ccc"/><path d="M111.57 236.88l3.32-4.86 3.3-5.55 3.56-6.8 4.7-10.63 10.13-24.35 2.56-4.96 2.2-3.7 2.07-3.02 2-2.58 2-2.27 2.02-2.05 2.08-1.88 2.18-1.73 2.3-1.62 2.5-1.53 2.68-1.45 2.97-1.37 3.3-1.3 3.77-1.23 3.78-1" stroke="#ccc" stroke-width="2" fill="none"/><path d="M112.43 237.4l-.04.07-.84-.6zM175 153l-.34-.94.43-.15z" fill="#ccc"/><path d="M260 213l-14.3 1.88-6.4 1.68-24.04 9.75" stroke="#ccc" stroke-width="2" fill="none"/><path d="M260 213l-.14-1 .27-.03zM215.26 226.3l-.63-.8.26-.1z" fill="#ccc"/><path d="M160 117l5 .5 4.04 1.26 4.26 2.43 11.13 10.03" stroke="#ccc" stroke-width="2" fill="none"/><path d="M160.32 116.05l-.32.95-.04-1.07zM185.16 130.54l-.33.25-.4.43.67-.75z" fill="#ccc"/><path d="M200 103l.6 5.27L205 123" stroke="#ccc" stroke-width="2" fill="none"/><path d="M200 103l-.97.23-.1-.36zM206.07 123.1L205 123l.96-.3z" fill="#ccc"/><path d="M220 83l3.08.37 2.46.96 3.03 2.28 5.9 5.07 2.45.96L240 93" stroke="#ccc" stroke-width="2" fill="none"/><path d="M220.5 82.13l-.5.87-.04-1.17zM240 93l.04 1.18-.54-.3.5-.88z" fill="#ccc"/><path d="M340 93v20" stroke="#ccc" stroke-width="2" fill="none"/><path d="M340 93l1-.04V93h-2v-.13zM341 113.06l-1-.06-1 .04V113h2z" fill="#ccc"/><path d="M100 273l.4 10.12 1.06 9 1.52 7.6 1.8 6.3 1.92 5.17 2 4.27 2 3.56 2.03 3 2.02 2.52 2.02 2.15 2.03 1.85 2.05 1.6 2.1 1.36 2.14 1.18 2.2 1 2.34.82 2.46.65 2.62.48 2.84.3 2.44.07" stroke="#ccc" stroke-width="2" fill="none"/><path d="M100 273h.03l-1.03.07v-.2zM140.04 337.03l-.25-.05.2-.98z" fill="#ccc"/><path d="M243.15 283.88l-9.6-9.62-12.98-14.1-4.3-3.16" stroke="#ccc" stroke-width="2" fill="none"/><path d="M242.54 284.62l-.03.04-.07-.07.72-.72zM216.94 256.27l-.68.73.1-.14.35-.82z" fill="#ccc"/><path d="M120 253l5.84-.34 4.33-.8 3.9-1.27 15.76-6.95 4.33-.8 5.84-.35" stroke="#ccc" stroke-width="2" fill="none"/><path d="M120.18 253.98l-.3.06.12-1.04zM160 242.5l-.2-.98.3-.06z" fill="#ccc"/><path d="M297.9 221.72l33.55 13.93 9.53 5.26 9.62 6.46 6.63 5.1" stroke="#ccc" stroke-width="2" fill="none"/><path d="M297.52 222.64zm.76-1.84l-.4.96.4-.97zM357.86 251.7l-.63.77.6-.8zM482 296c0 38.66-31.34 70-70 70s-70-31.34-70-70 31.34-70 70-70 70 31.34 70 70z" fill="#ccc"/><use xlink:href="#j" transform="matrix(1,0,0,1,347,231) translate(28.574999999999996 68.60000000000001)"/><path d="M315 308c0 22.1-17.9 40-40 40s-40-17.9-40-40 17.9-40 40-40 40 17.9 40 40z" fill="#ccc"/><use xlink:href="#g" transform="matrix(1,0,0,1,240,273) translate(6.166666666666664 37.66666666666667)"/><path d="M160 397c0 11.05-8.95 20-20 20s-20-8.95-20-20 8.95-20 20-20 20 8.95 20 20z" fill="#ccc"/><use xlink:href="#i" transform="matrix(1,0,0,1,125,382) translate(-0.5370370370370381 17.666666666666668)"/><path d="M315 308l27.86.04.2-.04" stroke="#ccc" stroke-width="2" fill="none"/><path d="M315 307v2h-.06l.06-1-.04-1zM343.25 309h-.18v-1z" fill="#ccc"/><path d="M200 336l13.45-.7 7.56-1.46 7.2-2.37 10.57-5.15.56-.3" stroke="#ccc" stroke-width="2" fill="none"/><path d="M200.07 337h-.15l.08-1v-.02zM239.8 326.88l-.06.04-.4-.9z" fill="#ccc"/><path d="M200 336c0 16.57-13.43 30-30 30s-30-13.43-30-30 13.43-30 30-30 30 13.43 30 30z" fill="#ccc"/><use xlink:href="#h" transform="matrix(1,0,0,1,145,311) translate(-1.6111111111111143 27.666666666666668)"/><path d="M140 377l.77-6.55 2-4.97 6.3-8.1" stroke="#ccc" stroke-width="2" fill="none"/><path d="M140 377l-1.07.04.12-.36zM149.08 357.37l-.84-.54.1-.15z" fill="#ccc"/><use xlink:href="#c" transform="matrix(1,0,0,1,947.3333333333376,687.3669572719009) translate(15 20.4)"/><use xlink:href="#c" transform="matrix(1,0,0,1,5,5) translate(15 20.4)"/><defs><path fill="#222" d="M30-248c118-7 216 8 213 122C240-48 200 0 122 0H30v-248zM63-27c89 8 146-16 146-99s-60-101-146-95v194" id="k"/><path fill="#222" d="M141-36C126-15 110 5 73 4 37 3 15-17 15-53c-1-64 63-63 125-63 3-35-9-54-41-54-24 1-41 7-42 31l-33-3c5-37 33-52 76-52 45 0 72 20 72 64v82c-1 20 7 32 28 27v20c-31 9-61-2-59-35zM48-53c0 20 12 33 32 33 41-3 63-29 60-74-43 2-92-5-92 41" id="l"/><path fill="#222" d="M59-47c-2 24 18 29 38 22v24C64 9 27 4 27-40v-127H5v-23h24l9-43h21v43h35v23H59v120" id="m"/><g id="a"><use transform="matrix(0.05,0,0,0.05,0,0)" xlink:href="#k"/><use transform="matrix(0.05,0,0,0.05,12.950000000000001,0)" xlink:href="#l"/><use transform="matrix(0.05,0,0,0.05,22.950000000000003,0)" xlink:href="#m"/><use transform="matrix(0.05,0,0,0.05,27.950000000000003,0)" xlink:href="#l"/></g><path d="M197 0v-115H63V0H30v-248h33v105h134v-105h34V0h-34" id="n"/><path d="M127-220V0H93v-220H8v-28h204v28h-85" id="o"/><path d="M240 0l2-218c-23 76-54 145-80 218h-23L58-218 59 0H30v-248h44l77 211c21-75 51-140 76-211h43V0h-30" id="p"/><path d="M30 0v-248h33v221h125V0H30" id="q"/><path d="M16-82v-28h88v28H16" id="r"/><path d="M30-248c87 1 191-15 191 75 0 78-77 80-158 76V0H30v-248zm33 125c57 0 124 11 124-50 0-59-68-47-124-48v98" id="s"/><path d="M205 0l-28-72H64L36 0H1l101-248h38L239 0h-34zm-38-99l-47-123c-12 45-31 82-46 123h93" id="t"/><path d="M143 4C61 4 22-44 18-125c-5-107 100-154 193-111 17 8 29 25 37 43l-32 9c-13-25-37-40-76-40-61 0-88 39-88 99 0 61 29 100 91 101 35 0 62-11 79-27v-45h-74v-28h105v86C228-13 192 4 143 4" id="u"/><path d="M30 0v-248h187v28H63v79h144v27H63v87h162V0H30" id="v"/><g id="b"><use transform="matrix(0.05,0,0,0.05,0,0)" xlink:href="#n"/><use transform="matrix(0.05,0,0,0.05,12.950000000000001,0)" xlink:href="#o"/><use transform="matrix(0.05,0,0,0.05,23.900000000000002,0)" xlink:href="#p"/><use transform="matrix(0.05,0,0,0.05,38.85,0)" xlink:href="#q"/><use transform="matrix(0.05,0,0,0.05,48.85,0)" xlink:href="#r"/><use transform="matrix(0.05,0,0,0.05,54.800000000000004,0)" xlink:href="#s"/><use transform="matrix(0.05,0,0,0.05,65.45,0)" xlink:href="#t"/><use transform="matrix(0.05,0,0,0.05,77.45,0)" xlink:href="#u"/><use transform="matrix(0.05,0,0,0.05,91.45,0)" xlink:href="#v"/></g><path fill="#ccc" d="M136-208V0H84v-208H4v-40h212v40h-80" id="w"/><path fill="#ccc" d="M185-48c-13 30-37 53-82 52C43 2 14-33 14-96s30-98 90-98c62 0 83 45 84 108H66c0 31 8 55 39 56 18 0 30-7 34-22zm-45-69c5-46-57-63-70-21-2 6-4 13-4 21h74" id="x"/><path fill="#ccc" d="M220-157c-53 9-28 100-34 157h-49v-107c1-27-5-49-29-50C55-147 81-57 75 0H25l-1-190h47c2 12-1 28 3 38 10-53 101-56 108 0 13-22 24-43 59-42 82 1 51 116 57 194h-49v-107c-1-25-5-48-29-50" id="y"/><path fill="#ccc" d="M135-194c53 0 70 44 70 98 0 56-19 98-73 100-31 1-45-17-59-34 3 33 2 69 2 105H25l-1-265h48c2 10 0 23 3 31 11-24 29-35 60-35zM114-30c33 0 39-31 40-66 0-38-9-64-40-64-56 0-55 130 0 130" id="z"/><path fill="#ccc" d="M25 0v-261h50V0H25" id="A"/><path fill="#ccc" d="M133-34C117-15 103 5 69 4 32 3 11-16 11-54c-1-60 55-63 116-61 1-26-3-47-28-47-18 1-26 9-28 27l-52-2c7-38 36-58 82-57s74 22 75 68l1 82c-1 14 12 18 25 15v27c-30 8-71 5-69-32zm-48 3c29 0 43-24 42-57-32 0-66-3-65 30 0 17 8 27 23 27" id="B"/><path fill="#ccc" d="M115-3C79 11 28 4 28-45v-112H4v-33h27l15-45h31v45h36v33H77v99c-1 23 16 31 38 25v30" id="C"/><path fill="#ccc" d="M14-72v-43h91v43H14" id="D"/><g id="d"><use transform="matrix(0.05,0,0,0.05,0,0)" xlink:href="#w"/><use transform="matrix(0.05,0,0,0.05,9.600000000000001,0)" xlink:href="#x"/><use transform="matrix(0.05,0,0,0.05,19.6,0)" xlink:href="#y"/><use transform="matrix(0.05,0,0,0.05,35.6,0)" xlink:href="#z"/><use transform="matrix(0.05,0,0,0.05,46.550000000000004,0)" xlink:href="#A"/><use transform="matrix(0.05,0,0,0.05,51.550000000000004,0)" xlink:href="#B"/><use transform="matrix(0.05,0,0,0.05,61.550000000000004,0)" xlink:href="#C"/><use transform="matrix(0.05,0,0,0.05,67.5,0)" xlink:href="#x"/><use transform="matrix(0.05,0,0,0.05,77.5,0)" xlink:href="#D"/></g><path fill="#ccc" d="M24 0v-248h195v40H76v63h132v40H76v65h150V0H24" id="E"/><path fill="#ccc" d="M135-194c87-1 58 113 63 194h-50c-7-57 23-157-34-157-59 0-34 97-39 157H25l-1-190h47c2 12-1 28 3 38 12-26 28-41 61-42" id="F"/><path fill="#ccc" d="M195-6C206 82 75 100 31 46c-4-6-6-13-8-21l49-6c3 16 16 24 34 25 40 0 42-37 40-79-11 22-30 35-61 35-53 0-70-43-70-97 0-56 18-96 73-97 30 0 46 14 59 34l2-30h47zm-90-29c32 0 41-27 41-63 0-35-9-62-40-62-32 0-39 29-40 63 0 36 9 62 39 62" id="G"/><path fill="#ccc" d="M25-224v-37h50v37H25zM25 0v-190h50V0H25" id="H"/><g id="e"><use transform="matrix(0.05,0,0,0.05,0,0)" xlink:href="#E"/><use transform="matrix(0.05,0,0,0.05,12,0)" xlink:href="#F"/><use transform="matrix(0.05,0,0,0.05,22.950000000000003,0)" xlink:href="#G"/><use transform="matrix(0.05,0,0,0.05,33.900000000000006,0)" xlink:href="#H"/><use transform="matrix(0.05,0,0,0.05,38.900000000000006,0)" xlink:href="#F"/><use transform="matrix(0.05,0,0,0.05,49.85000000000001,0)" xlink:href="#x"/></g><path fill="#fcc438" d="M275 0h-61l-44-196L126 0H64L0-248h53L97-49l45-199h58l43 199 44-199h52" id="I"/><path fill="#fcc438" d="M185-48c-13 30-37 53-82 52C43 2 14-33 14-96s30-98 90-98c62 0 83 45 84 108H66c0 31 8 55 39 56 18 0 30-7 34-22zm-45-69c5-46-57-63-70-21-2 6-4 13-4 21h74" id="J"/><path fill="#fcc438" d="M135-194c52 0 70 43 70 98 0 56-19 99-73 100-30 1-46-15-58-35L72 0H24l1-261h50v104c11-23 29-37 60-37zM114-30c31 0 40-27 40-66 0-37-7-63-39-63s-41 28-41 65c0 36 8 64 40 64" id="K"/><path fill="#fcc438" d="M137-138c1-29-70-34-71-4 15 46 118 7 119 86 1 83-164 76-172 9l43-7c4 19 20 25 44 25 33 8 57-30 24-41C81-84 22-81 20-136c-2-80 154-74 161-7" id="L"/><path fill="#fcc438" d="M25-224v-37h50v37H25zM25 0v-190h50V0H25" id="M"/><path fill="#fcc438" d="M115-3C79 11 28 4 28-45v-112H4v-33h27l15-45h31v45h36v33H77v99c-1 23 16 31 38 25v30" id="N"/><g id="f"><use transform="matrix(0.06790123456790123,0,0,0.06790123456790123,0,0)" xlink:href="#I"/><use transform="matrix(0.06790123456790123,0,0,0.06790123456790123,22.543209876543205,0)" xlink:href="#J"/><use transform="matrix(0.06790123456790123,0,0,0.06790123456790123,36.123456790123456,0)" xlink:href="#K"/><use transform="matrix(0.06790123456790123,0,0,0.06790123456790123,50.99382716049382,0)" xlink:href="#L"/><use transform="matrix(0.06790123456790123,0,0,0.06790123456790123,64.57407407407408,0)" xlink:href="#M"/><use transform="matrix(0.06790123456790123,0,0,0.06790123456790123,71.3641975308642,0)" xlink:href="#N"/><use transform="matrix(0.06790123456790123,0,0,0.06790123456790123,79.44444444444446,0)" xlink:href="#J"/></g><path d="M140-251c81 0 123 46 123 126C263-46 219 4 140 4 59 4 17-45 17-125s42-126 123-126zm0 227c63 0 89-41 89-101s-29-99-89-99c-61 0-89 39-89 99S79-25 140-24" id="O"/><path d="M114-163C36-179 61-72 57 0H25l-1-190h30c1 12-1 29 2 39 6-27 23-49 58-41v29" id="P"/><path d="M177-190C167-65 218 103 67 71c-23-6-38-20-44-43l32-5c15 47 100 32 89-28v-30C133-14 115 1 83 1 29 1 15-40 15-95c0-56 16-97 71-98 29-1 48 16 59 35 1-10 0-23 2-32h30zM94-22c36 0 50-32 50-73 0-42-14-75-50-75-39 0-46 34-46 75s6 73 46 73" id="Q"/><path d="M141-36C126-15 110 5 73 4 37 3 15-17 15-53c-1-64 63-63 125-63 3-35-9-54-41-54-24 1-41 7-42 31l-33-3c5-37 33-52 76-52 45 0 72 20 72 64v82c-1 20 7 32 28 27v20c-31 9-61-2-59-35zM48-53c0 20 12 33 32 33 41-3 63-29 60-74-43 2-92-5-92 41" id="R"/><path d="M117-194c89-4 53 116 60 194h-32v-121c0-31-8-49-39-48C34-167 62-67 57 0H25l-1-190h30c1 10-1 24 2 32 11-22 29-35 61-36" id="S"/><path d="M24-231v-30h32v30H24zM24 0v-190h32V0H24" id="T"/><path d="M135-143c-3-34-86-38-87 0 15 53 115 12 119 90S17 21 10-45l28-5c4 36 97 45 98 0-10-56-113-15-118-90-4-57 82-63 122-42 12 7 21 19 24 35" id="U"/><path d="M210-169c-67 3-38 105-44 169h-31v-121c0-29-5-50-35-48C34-165 62-65 56 0H25l-1-190h30c1 10-1 24 2 32 10-44 99-50 107 0 11-21 27-35 58-36 85-2 47 119 55 194h-31v-121c0-29-5-49-35-48" id="V"/><g id="g"><use transform="matrix(0.03703703703703704,0,0,0.03703703703703704,0,0)" xlink:href="#O"/><use transform="matrix(0.03703703703703704,0,0,0.03703703703703704,10.370370370370372,0)" xlink:href="#P"/><use transform="matrix(0.03703703703703704,0,0,0.03703703703703704,14.77777777777778,0)" xlink:href="#Q"/><use transform="matrix(0.03703703703703704,0,0,0.03703703703703704,22.185185185185194,0)" xlink:href="#R"/><use transform="matrix(0.03703703703703704,0,0,0.03703703703703704,29.592592592592602,0)" xlink:href="#S"/><use transform="matrix(0.03703703703703704,0,0,0.03703703703703704,37.00000000000001,0)" xlink:href="#T"/><use transform="matrix(0.03703703703703704,0,0,0.03703703703703704,39.92592592592593,0)" xlink:href="#U"/><use transform="matrix(0.03703703703703704,0,0,0.03703703703703704,46.592592592592595,0)" xlink:href="#V"/></g><path d="M100-194c62-1 85 37 85 99 1 63-27 99-86 99S16-35 15-95c0-66 28-99 85-99zM99-20c44 1 53-31 53-75 0-43-8-75-51-75s-53 32-53 75 10 74 51 75" id="W"/><path d="M24 0v-261h32V0H24" id="X"/><path d="M100-194c63 0 86 42 84 106H49c0 40 14 67 53 68 26 1 43-12 49-29l28 8c-11 28-37 45-77 45C44 4 14-33 15-96c1-61 26-98 85-98zm52 81c6-60-76-77-97-28-3 7-6 17-6 28h103" id="Y"/><path d="M96-169c-40 0-48 33-48 73s9 75 48 75c24 0 41-14 43-38l32 2c-6 37-31 61-74 61-59 0-76-41-82-99-10-93 101-131 147-64 4 7 5 14 7 22l-32 3c-4-21-16-35-41-35" id="Z"/><path d="M84 4C-5 8 30-112 23-190h32v120c0 31 7 50 39 49 72-2 45-101 50-169h31l1 190h-30c-1-10 1-25-2-33-11 22-28 36-60 37" id="aa"/><g id="h"><use transform="matrix(0.03703703703703704,0,0,0.03703703703703704,0,0)" xlink:href="#p"/><use transform="matrix(0.03703703703703704,0,0,0.03703703703703704,11.074074074074076,0)" xlink:href="#W"/><use transform="matrix(0.03703703703703704,0,0,0.03703703703703704,18.481481481481485,0)" xlink:href="#X"/><use transform="matrix(0.03703703703703704,0,0,0.03703703703703704,21.407407407407412,0)" xlink:href="#Y"/><use transform="matrix(0.03703703703703704,0,0,0.03703703703703704,28.81481481481482,0)" xlink:href="#Z"/><use transform="matrix(0.03703703703703704,0,0,0.03703703703703704,35.48148148148149,0)" xlink:href="#aa"/><use transform="matrix(0.03703703703703704,0,0,0.03703703703703704,42.8888888888889,0)" xlink:href="#X"/><use transform="matrix(0.03703703703703704,0,0,0.03703703703703704,45.814814814814824,0)" xlink:href="#Y"/></g><path d="M59-47c-2 24 18 29 38 22v24C64 9 27 4 27-40v-127H5v-23h24l9-43h21v43h35v23H59v120" id="ab"/><g id="i"><use transform="matrix(0.03703703703703704,0,0,0.03703703703703704,0,0)" xlink:href="#t"/><use transform="matrix(0.03703703703703704,0,0,0.03703703703703704,8.88888888888889,0)" xlink:href="#ab"/><use transform="matrix(0.03703703703703704,0,0,0.03703703703703704,12.592592592592593,0)" xlink:href="#W"/><use transform="matrix(0.03703703703703704,0,0,0.03703703703703704,20,0)" xlink:href="#V"/></g><path d="M115-194c55 1 70 41 70 98S169 2 115 4C84 4 66-9 55-30l1 105H24l-1-265h31l2 30c10-21 28-34 59-34zm-8 174c40 0 45-34 45-75s-6-73-45-74c-42 0-51 32-51 76 0 43 10 73 51 73" id="ac"/><g id="j"><use transform="matrix(0.05,0,0,0.05,0,0)" xlink:href="#o"/><use transform="matrix(0.05,0,0,0.05,8.950000000000001,0)" xlink:href="#Y"/><use transform="matrix(0.05,0,0,0.05,18.950000000000003,0)" xlink:href="#V"/><use transform="matrix(0.05,0,0,0.05,33.900000000000006,0)" xlink:href="#ac"/><use transform="matrix(0.05,0,0,0.05,43.900000000000006,0)" xlink:href="#X"/><use transform="matrix(0.05,0,0,0.05,47.85000000000001,0)" xlink:href="#R"/><use transform="matrix(0.05,0,0,0.05,57.85,0)" xlink:href="#ab"/><use transform="matrix(0.05,0,0,0.05,62.85,0)" xlink:href="#Y"/></g></defs></g></svg>