
<svg xmlns="http://www.w3.org/2000/svg" xmlns:xlink="http://www.w3.org/1999/xlink" width="1000" height="520"><g transform="translate(-140 -60)"><path d="M400 160c0 22.1-17.9 40-40 40s-40-17.9-40-40 17.9-40 40-40 40 17.9 40 40z" fill="#66d15c"/><use xlink:href="#a" transform="matrix(1,0,0,1,325,125) translate(6.166666666666664 37.66666666666667)"/><path d="M400 380c0 22.1-17.9 40-40 40s-40-17.9-40-40 17.9-40 40-40 40 17.9 40 40z" fill="#66d15c"/><use xlink:href="#a" transform="matrix(1,0,0,1,325,345) translate(6.166666666666664 37.66666666666667)"/><path d="M389.93 186.46l31.98 32.73" stroke="#66d15c" stroke-width="2" fill="none"/><path d="M390.65 185.76l-.72.7.64-.78z" fill="#66d15c"/><path d="M421.9 219.2l-13.28-6.97 6.64-6.48z" stroke="#66d15c" stroke-width="2" fill="#66d15c"/><path d="M386.1 349.77l32.4-32.4" stroke="#66d15c" stroke-width="2" fill="none"/><path d="M386.1 349.77l-.78-.64.07-.07z" fill="#66d15c"/><path d="M418.5 317.36l-6.8 13.36-6.56-6.55z" stroke="#66d15c" stroke-width="2" fill="#66d15c"/><path d="M540 270c0 38.66-31.34 70-70 70s-70-31.34-70-70 31.34-70 70-70 70 31.34 70 70z" fill="#66d15c"/><use xlink:href="#b" transform="matrix(1,0,0,1,405,205) translate(28.574999999999996 68.60000000000001)"/><path d="M540 270h80" stroke="#ccc" stroke-width="2" fill="none"/><path d="M540 271h-.04l.04-1-.04-1h.04zM620 270l-14.27 4.64v-9.28z" fill="#ccc"/><path d="M620.04 268.96L620 270l.04 1.04-15.3 4.97v-12zm-13.3 4.3l10.02-3.26-10.03-3.26z" fill="#ccc"/><path d="M980 270c0 38.66-31.34 70-70 70s-70-31.34-70-70 31.34-70 70-70 70 31.34 70 70z" fill="#fcc438"/><use xlink:href="#c" transform="matrix(1,0,0,1,845,205) translate(42.4 68.60000000000001)"/><path d="M760 270c0 38.66-31.34 70-70 70s-70-31.34-70-70 31.34-70 70-70 70 31.34 70 70z" fill="#ccc"/><use xlink:href="#d" transform="matrix(1,0,0,1,625,205) translate(23.275 57.8)"/><use xlink:href="#e" transform="matrix(1,0,0,1,625,205) translate(35.074999999999996 79.4)"/><path d="M840 270h-79" stroke="#ccc" stroke-width="2" fill="none"/><path d="M840 270l.04 1H840v-2h.04zM775.27 274.64L761 270l14.27-4.64z" fill="#ccc"/><path d="M776.27 276l-16.3-5.28.03-.72-.03-.72 16.3-5.3zm-12.03-6l10.03 3.26v-6.52z" fill="#ccc"/><path d="M690 340v80" stroke="#ccc" stroke-width="2" fill="none"/><path d="M690 340l1-.04v.04h-2v-.04zM690 420l-4.64-14.27h9.28z" fill="#ccc"/><path d="M691.05 420h-2.1L684 404.73h12zm-4.3-13.27l3.25 10.03 3.26-10.03z" fill="#ccc"/><path d="M610 425c0-2.76 2.24-5 5-5h150c2.76 0 5 2.24 5 5v110c0 2.76-2.24 5-5 5H615c-2.76 0-5-2.24-5-5z" fill="url(#f)"/><use xlink:href="#g" transform="matrix(1,0,0,1,615,425) translate(50.575 58.6)"/><path d="M160 85c0-2.76 2.24-5 5-5h50c2.76 0 5 2.24 5 5v30c0 2.76-2.24 5-5 5h-50c-2.76 0-5-2.24-5-5z" fill="none"/><use xlink:href="#h" transform="matrix(1,0,0,1,165,85) translate(25 20.4)"/><path d="M1060 525c0-2.76 2.24-5 5-5h50c2.76 0 5 2.24 5 5v30c0 2.76-2.24 5-5 5h-50c-2.76 0-5-2.24-5-5z" fill="none"/><use xlink:href="#h" transform="matrix(1,0,0,1,1065,525) translate(25 20.4)"/><path d="M408.98 236h122.04M409.04 304.38h122.03" stroke="#222" stroke-width="2" fill="none"/><path d="M300 125c0 16.57-13.43 30-30 30s-30-13.43-30-30 13.43-30 30-30 30 13.43 30 30z" fill="#66d15c"/><use xlink:href="#i" transform="matrix(1,0,0,1,245,100) translate(-1.6111111111111143 27.666666666666668)"/><path d="M300 192.5c0 16.57-13.43 30-30 30s-30-13.43-30-30 13.43-30 30-30 30 13.43 30 30z" fill="#66d15c"/><use xlink:href="#i" transform="matrix(1,0,0,1,245,167.5) translate(-1.6111111111111143 27.666666666666668)"/><path d="M297.82 181.4l24.06-9.35" stroke="#66d15c" stroke-width="2" fill="none"/><path d="M298.2 182.33l-.06.02-.32-.95zM310.26 181.54l-3.36-8.64 14.98-.85z" fill="#66d15c"/><path d="M322.03 172.62l.18.45-12.37 10.1-4.36-11.2 16.15-.9zm-13.7 1.2l2.37 6.07 8.16-6.68z" fill="#66d15c"/><path d="M297.33 137.13l24.86 10" stroke="#66d15c" stroke-width="2" fill="none"/><path d="M296.96 138.06h-.03l.4-.93zM322.2 147.14l-14.97-1.03 3.46-8.6z" fill="#66d15c"/><path d="M322.52 146.1l-.65 2.02-16.1-1.1 4.5-11.16zm-13.85-.9l10.52.73-8.1-6.77zM320 258.5c0 10.22-8.95 18.5-20 18.5s-20-8.28-20-18.5 8.95-18.5 20-18.5 20 8.28 20 18.5z" fill="#66d15c"/><use xlink:href="#j" transform="matrix(1,0,0,1,285,245) translate(-0.5370370370370381 16.166666666666668)"/><path d="M291.33 242l-10.27-21.66" stroke="#66d15c" stroke-width="2" fill="none"/><path d="M290.43 242.42l.9-.43zM291.36 231.24l-8.38 3.97-1.92-14.86z" fill="#66d15c"/><path d="M293.03 231.55l-10.86 5.16-2.08-16.04 1.7-.56.26-.15zm-9.23 2.17l5.9-2.8-7.26-7.66zM260 259c0 10.22-8.95 18.5-20 18.5s-20-8.28-20-18.5 8.95-18.5 20-18.5 20 8.28 20 18.5z" fill="#66d15c"/><use xlink:href="#j" transform="matrix(1,0,0,1,225,245.5) translate(-0.5370370370370381 16.166666666666668)"/><path d="M245.33 241.17l12.13-21.52" stroke="#66d15c" stroke-width="2" fill="none"/><path d="M245.33 241.17l-1.07-.14.2-.36zM254.5 234.36l-8.08-4.56 11.04-10.15z" fill="#66d15c"/><path d="M258.4 220.07l-3.2 15.83-10.47-5.9 11.74-10.8zm-10.3 9.54l5.7 3.2 2.07-10.33zM300 350c0 16.57-13.43 30-30 30s-30-13.43-30-30 13.43-30 30-30 30 13.43 30 30z" fill="#66d15c"/><use xlink:href="#i" transform="matrix(1,0,0,1,245,325) translate(-1.6111111111111143 27.666666666666668)"/><path d="M292.28 275.4l-15.08 45.57" stroke="#66d15c" stroke-width="2" fill="none"/><path d="M292.28 275.4l-.95-.32v-.05zM286.08 308.9l-8.88 12.07.08-15z" fill="#66d15c"/><path d="M287.7 308.37l-9.46 12.87-2.04-.52.1-16.13zm-9.5 9.53l6.26-8.5-6.2-2.04z" fill="#66d15c"/><path d="M296.6 363.76l24.46 7.25" stroke="#66d15c" stroke-width="2" fill="none"/><path d="M296.33 364.72l-.2-.05.22-.3.26-.6zM321.06 371l-15 .4 2.64-8.9z" fill="#66d15c"/><path d="M321.28 369.94l-.04.13-.37 1.94-16.15.43 3.42-11.52zm-13.86.42l10.54-.27-8.7-6zM220 160c0 10.22-8.95 18.5-20 18.5s-20-8.28-20-18.5 8.95-18.5 20-18.5 20 8.28 20 18.5z" fill="#66d15c"/><use xlink:href="#j" transform="matrix(1,0,0,1,185,146.5) translate(-0.5370370370370381 16.166666666666668)"/><path d="M213.55 146.5l5.35-6.3 4.56-3.64 5.07-2.68 7.7-2.33 4.4-.8" stroke="#66d15c" stroke-width="2" fill="none"/><path d="M213.55 146.5l-.83-.6.13-.12zM240.63 130.75l-12.33 8.54-2.66-8.9z" fill="#66d15c"/><path d="M240.48 129.75l.32 2.1-13.06 9.05-3.46-11.52zm-11.62 7.93l8.67-6-10.54-.24z" fill="#66d15c"/><path d="M194.67 177.84l-1.33 13.2-.65 11.1-.17 9.64.22 8.58.53 7.76.78 7.13 1 6.65 1.24 6.26 1.43 5.95 1.63 5.73 1.83 5.54 2.03 5.42 2.27 5.3 2.52 5.3 2.8 5.28 3.1 5.33 3.48 5.42 3.9 5.54 4.4 5.73 5 5.97 5.75 6.32 6.68 6.74 3.58 3.4" stroke="#66d15c" stroke-width="2" fill="none"/><path d="M194.67 177.83h.06l-1.06-.1.03-.28zM246.7 331.14l-13.38-6.76 6.53-6.58z" fill="#66d15c"/><path d="M247.44 330.36l-1.03 1.1-.3.5-14.46-7.3 8.47-8.54zM235 324.1l9.4 4.76-4.8-9.38z" fill="#66d15c"/><path d="M310.75 274.02l33.2 69.4" stroke="#66d15c" stroke-width="2" fill="none"/><path d="M309.84 274.45l.9-.43zm1.8-.87l-.25.13.22-.18zM343.96 343.4l-10.34-10.86 8.37-4z" fill="#66d15c"/><path d="M344.92 343.02l-1.95.8-11.02-11.58 10.84-5.2zm-9.62-10.17l7.27 7.64-1.4-10.46z" fill="#66d15c"/><path d="M292.24 104.86l5.48-2.43 5.67-2.23 5.82-2.02 5.95-1.8 6.04-1.54 6.1-1.3 6.13-1 6.1-.78 6.07-.5 6-.24h5.86l5.76.25 5.6.48 5.46.7 5.3.9 5.1 1.1 4.93 1.26 4.77 1.46 4.58 1.6 4.4 1.75 4.25 1.9 4.08 2.03 3.92 2.16 3.76 2.28 3.62 2.4 3.48 2.55 3.35 2.66 3.23 2.77 3.1 2.92 2.97 3.03 2.85 3.18 2.75 3.34 2.63 3.48 2.53 3.64 2.4 3.82 2.32 4 2.2 4.2 2.06 4.44 1.96 4.67 1.83 4.92 1.7 5.23 1.53 5.55 1.38 5.92 1.2 6.3.98 6.77.58 5.3" stroke="#66d15c" stroke-width="2" fill="none"/><path d="M292.24 104.87l-.03-.04-.76-.72.42-.16zM470 200l-6.58-13.48 9.18-1.3z" fill="#66d15c"/><path d="M471 200.04l-1-.04-1.1.04-6.98-14.32 11.9-1.68zm-6.08-12.72l4.63 9.48 1.82-10.4z" fill="#66d15c"/><defs><path d="M140-251c81 0 123 46 123 126C263-46 219 4 140 4 59 4 17-45 17-125s42-126 123-126zm0 227c63 0 89-41 89-101s-29-99-89-99c-61 0-89 39-89 99S79-25 140-24" id="k"/><path d="M114-163C36-179 61-72 57 0H25l-1-190h30c1 12-1 29 2 39 6-27 23-49 58-41v29" id="l"/><path d="M177-190C167-65 218 103 67 71c-23-6-38-20-44-43l32-5c15 47 100 32 89-28v-30C133-14 115 1 83 1 29 1 15-40 15-95c0-56 16-97 71-98 29-1 48 16 59 35 1-10 0-23 2-32h30zM94-22c36 0 50-32 50-73 0-42-14-75-50-75-39 0-46 34-46 75s6 73 46 73" id="m"/><path d="M141-36C126-15 110 5 73 4 37 3 15-17 15-53c-1-64 63-63 125-63 3-35-9-54-41-54-24 1-41 7-42 31l-33-3c5-37 33-52 76-52 45 0 72 20 72 64v82c-1 20 7 32 28 27v20c-31 9-61-2-59-35zM48-53c0 20 12 33 32 33 41-3 63-29 60-74-43 2-92-5-92 41" id="n"/><path d="M117-194c89-4 53 116 60 194h-32v-121c0-31-8-49-39-48C34-167 62-67 57 0H25l-1-190h30c1 10-1 24 2 32 11-22 29-35 61-36" id="o"/><path d="M24-231v-30h32v30H24zM24 0v-190h32V0H24" id="p"/><path d="M135-143c-3-34-86-38-87 0 15 53 115 12 119 90S17 21 10-45l28-5c4 36 97 45 98 0-10-56-113-15-118-90-4-57 82-63 122-42 12 7 21 19 24 35" id="q"/><path d="M210-169c-67 3-38 105-44 169h-31v-121c0-29-5-50-35-48C34-165 62-65 56 0H25l-1-190h30c1 10-1 24 2 32 10-44 99-50 107 0 11-21 27-35 58-36 85-2 47 119 55 194h-31v-121c0-29-5-49-35-48" id="r"/><g id="a"><use transform="matrix(0.03703703703703704,0,0,0.03703703703703704,0,0)" xlink:href="#k"/><use transform="matrix(0.03703703703703704,0,0,0.03703703703703704,10.370370370370372,0)" xlink:href="#l"/><use transform="matrix(0.03703703703703704,0,0,0.03703703703703704,14.77777777777778,0)" xlink:href="#m"/><use transform="matrix(0.03703703703703704,0,0,0.03703703703703704,22.185185185185194,0)" xlink:href="#n"/><use transform="matrix(0.03703703703703704,0,0,0.03703703703703704,29.592592592592602,0)" xlink:href="#o"/><use transform="matrix(0.03703703703703704,0,0,0.03703703703703704,37.00000000000001,0)" xlink:href="#p"/><use transform="matrix(0.03703703703703704,0,0,0.03703703703703704,39.92592592592593,0)" xlink:href="#q"/><use transform="matrix(0.03703703703703704,0,0,0.03703703703703704,46.592592592592595,0)" xlink:href="#r"/></g><path d="M127-220V0H93v-220H8v-28h204v28h-85" id="s"/><path d="M100-194c63 0 86 42 84 106H49c0 40 14 67 53 68 26 1 43-12 49-29l28 8c-11 28-37 45-77 45C44 4 14-33 15-96c1-61 26-98 85-98zm52 81c6-60-76-77-97-28-3 7-6 17-6 28h103" id="t"/><path d="M115-194c55 1 70 41 70 98S169 2 115 4C84 4 66-9 55-30l1 105H24l-1-265h31l2 30c10-21 28-34 59-34zm-8 174c40 0 45-34 45-75s-6-73-45-74c-42 0-51 32-51 76 0 43 10 73 51 73" id="u"/><path d="M24 0v-261h32V0H24" id="v"/><path d="M59-47c-2 24 18 29 38 22v24C64 9 27 4 27-40v-127H5v-23h24l9-43h21v43h35v23H59v120" id="w"/><g id="b"><use transform="matrix(0.05,0,0,0.05,0,0)" xlink:href="#s"/><use transform="matrix(0.05,0,0,0.05,8.950000000000001,0)" xlink:href="#t"/><use transform="matrix(0.05,0,0,0.05,18.950000000000003,0)" xlink:href="#r"/><use transform="matrix(0.05,0,0,0.05,33.900000000000006,0)" xlink:href="#u"/><use transform="matrix(0.05,0,0,0.05,43.900000000000006,0)" xlink:href="#v"/><use transform="matrix(0.05,0,0,0.05,47.85000000000001,0)" xlink:href="#n"/><use transform="matrix(0.05,0,0,0.05,57.85,0)" xlink:href="#w"/><use transform="matrix(0.05,0,0,0.05,62.85,0)" xlink:href="#t"/></g><path d="M30-248c118-7 216 8 213 122C240-48 200 0 122 0H30v-248zM63-27c89 8 146-16 146-99s-60-101-146-95v194" id="x"/><path d="M205 0l-28-72H64L36 0H1l101-248h38L239 0h-34zm-38-99l-47-123c-12 45-31 82-46 123h93" id="y"/><g id="c"><use transform="matrix(0.05,0,0,0.05,0,0)" xlink:href="#x"/><use transform="matrix(0.05,0,0,0.05,12.950000000000001,0)" xlink:href="#y"/><use transform="matrix(0.05,0,0,0.05,23.6,0)" xlink:href="#s"/><use transform="matrix(0.05,0,0,0.05,33.2,0)" xlink:href="#y"/></g><path d="M136-208V0H84v-208H4v-40h212v40h-80" id="z"/><path d="M185-48c-13 30-37 53-82 52C43 2 14-33 14-96s30-98 90-98c62 0 83 45 84 108H66c0 31 8 55 39 56 18 0 30-7 34-22zm-45-69c5-46-57-63-70-21-2 6-4 13-4 21h74" id="A"/><path d="M220-157c-53 9-28 100-34 157h-49v-107c1-27-5-49-29-50C55-147 81-57 75 0H25l-1-190h47c2 12-1 28 3 38 10-53 101-56 108 0 13-22 24-43 59-42 82 1 51 116 57 194h-49v-107c-1-25-5-48-29-50" id="B"/><path d="M135-194c53 0 70 44 70 98 0 56-19 98-73 100-31 1-45-17-59-34 3 33 2 69 2 105H25l-1-265h48c2 10 0 23 3 31 11-24 29-35 60-35zM114-30c33 0 39-31 40-66 0-38-9-64-40-64-56 0-55 130 0 130" id="C"/><path d="M25 0v-261h50V0H25" id="D"/><path d="M133-34C117-15 103 5 69 4 32 3 11-16 11-54c-1-60 55-63 116-61 1-26-3-47-28-47-18 1-26 9-28 27l-52-2c7-38 36-58 82-57s74 22 75 68l1 82c-1 14 12 18 25 15v27c-30 8-71 5-69-32zm-48 3c29 0 43-24 42-57-32 0-66-3-65 30 0 17 8 27 23 27" id="E"/><path d="M115-3C79 11 28 4 28-45v-112H4v-33h27l15-45h31v45h36v33H77v99c-1 23 16 31 38 25v30" id="F"/><path d="M14-72v-43h91v43H14" id="G"/><g id="d"><use transform="matrix(0.05,0,0,0.05,0,0)" xlink:href="#z"/><use transform="matrix(0.05,0,0,0.05,9.600000000000001,0)" xlink:href="#A"/><use transform="matrix(0.05,0,0,0.05,19.6,0)" xlink:href="#B"/><use transform="matrix(0.05,0,0,0.05,35.6,0)" xlink:href="#C"/><use transform="matrix(0.05,0,0,0.05,46.550000000000004,0)" xlink:href="#D"/><use transform="matrix(0.05,0,0,0.05,51.550000000000004,0)" xlink:href="#E"/><use transform="matrix(0.05,0,0,0.05,61.550000000000004,0)" xlink:href="#F"/><use transform="matrix(0.05,0,0,0.05,67.5,0)" xlink:href="#A"/><use transform="matrix(0.05,0,0,0.05,77.5,0)" xlink:href="#G"/></g><path d="M24 0v-248h195v40H76v63h132v40H76v65h150V0H24" id="H"/><path d="M135-194c87-1 58 113 63 194h-50c-7-57 23-157-34-157-59 0-34 97-39 157H25l-1-190h47c2 12-1 28 3 38 12-26 28-41 61-42" id="I"/><path d="M195-6C206 82 75 100 31 46c-4-6-6-13-8-21l49-6c3 16 16 24 34 25 40 0 42-37 40-79-11 22-30 35-61 35-53 0-70-43-70-97 0-56 18-96 73-97 30 0 46 14 59 34l2-30h47zm-90-29c32 0 41-27 41-63 0-35-9-62-40-62-32 0-39 29-40 63 0 36 9 62 39 62" id="J"/><path d="M25-224v-37h50v37H25zM25 0v-190h50V0H25" id="K"/><g id="e"><use transform="matrix(0.05,0,0,0.05,0,0)" xlink:href="#H"/><use transform="matrix(0.05,0,0,0.05,12,0)" xlink:href="#I"/><use transform="matrix(0.05,0,0,0.05,22.950000000000003,0)" xlink:href="#J"/><use transform="matrix(0.05,0,0,0.05,33.900000000000006,0)" xlink:href="#K"/><use transform="matrix(0.05,0,0,0.05,38.900000000000006,0)" xlink:href="#I"/><use transform="matrix(0.05,0,0,0.05,49.85000000000001,0)" xlink:href="#A"/></g><linearGradient gradientUnits="userSpaceOnUse" id="f" x1="610" y1="420" x2="739.57" y2="540"><stop offset="0%" stop-color="#fcc438"/><stop offset="20%" stop-color="#fcc438"/><stop offset="100%" stop-color="#66d15c"/></linearGradient><path d="M197 0v-115H63V0H30v-248h33v105h134v-105h34V0h-34" id="L"/><path d="M240 0l2-218c-23 76-54 145-80 218h-23L58-218 59 0H30v-248h44l77 211c21-75 51-140 76-211h43V0h-30" id="M"/><path d="M30 0v-248h33v221h125V0H30" id="N"/><g id="g"><use transform="matrix(0.05,0,0,0.05,0,0)" xlink:href="#L"/><use transform="matrix(0.05,0,0,0.05,12.950000000000001,0)" xlink:href="#s"/><use transform="matrix(0.05,0,0,0.05,23.900000000000002,0)" xlink:href="#M"/><use transform="matrix(0.05,0,0,0.05,38.85,0)" xlink:href="#N"/></g><path d="M100-194c62-1 85 37 85 99 1 63-27 99-86 99S16-35 15-95c0-66 28-99 85-99zM99-20c44 1 53-31 53-75 0-43-8-75-51-75s-53 32-53 75 10 74 51 75" id="O"/><path d="M96-169c-40 0-48 33-48 73s9 75 48 75c24 0 41-14 43-38l32 2c-6 37-31 61-74 61-59 0-76-41-82-99-10-93 101-131 147-64 4 7 5 14 7 22l-32 3c-4-21-16-35-41-35" id="P"/><path d="M84 4C-5 8 30-112 23-190h32v120c0 31 7 50 39 49 72-2 45-101 50-169h31l1 190h-30c-1-10 1-25-2-33-11 22-28 36-60 37" id="Q"/><g id="i"><use transform="matrix(0.03703703703703704,0,0,0.03703703703703704,0,0)" xlink:href="#M"/><use transform="matrix(0.03703703703703704,0,0,0.03703703703703704,11.074074074074076,0)" xlink:href="#O"/><use transform="matrix(0.03703703703703704,0,0,0.03703703703703704,18.481481481481485,0)" xlink:href="#v"/><use transform="matrix(0.03703703703703704,0,0,0.03703703703703704,21.407407407407412,0)" xlink:href="#t"/><use transform="matrix(0.03703703703703704,0,0,0.03703703703703704,28.81481481481482,0)" xlink:href="#P"/><use transform="matrix(0.03703703703703704,0,0,0.03703703703703704,35.48148148148149,0)" xlink:href="#Q"/><use transform="matrix(0.03703703703703704,0,0,0.03703703703703704,42.8888888888889,0)" xlink:href="#v"/><use transform="matrix(0.03703703703703704,0,0,0.03703703703703704,45.814814814814824,0)" xlink:href="#t"/></g><g id="j"><use transform="matrix(0.03703703703703704,0,0,0.03703703703703704,0,0)" xlink:href="#y"/><use transform="matrix(0.03703703703703704,0,0,0.03703703703703704,8.88888888888889,0)" xlink:href="#w"/><use transform="matrix(0.03703703703703704,0,0,0.03703703703703704,12.592592592592593,0)" xlink:href="#O"/><use transform="matrix(0.03703703703703704,0,0,0.03703703703703704,20,0)" xlink:href="#r"/></g></defs></g></svg>