<svg xmlns="http://www.w3.org/2000/svg" xmlns:xlink="http://www.w3.org/1999/xlink" width="1022.33" height="762.37"><g transform="translate(20 20)"><path d="M482 296h58" stroke="#fcc438" stroke-width="2" fill="none"/><path d="M482 297h-.04l.04-1-.04-1h.04zm58-1l-14.27 4.64v-9.28z" fill="#fcc438"/><path d="M540 294.95v2.1L524.73 302v-12zm-13.27 4.3l10.03-3.25-10.03-3.26z" fill="#fcc438"/><path d="M688 105c0 35.9-30.44 65-68 65s-68-29.1-68-65 30.44-65 68-65 68 29.1 68 65z" fill="#a3d977"/><use xlink:href="#a" transform="translate(601.025 108.6)"/><path d="M620 170v45" stroke="#fcc438" stroke-width="2" fill="none"/><path d="M620 170h1-2v-.04zm0 45l-4.64-14.27h9.28z" fill="#fcc438"/><path d="M621.05 215h-2.1L614 199.73h12zm-4.3-13.27l3.25 10.03 3.26-10.03z" fill="#fcc438"/><path d="M760 241c0-2.76 2.24-5 5-5h150c2.76 0 5 2.24 5 5v110c0 2.76-2.24 5-5 5H765c-2.76 0-5-2.24-5-5z" stroke="#fcc438" stroke-width="2" fill="#fff"/><use xlink:href="#b" transform="translate(788.275 299.6)"/><path d="M700 309.45V282.4h-13.44c-1.76-8.1-5.28-18-10.56-25.6l8.64-8.6-18.72-18.94-9.12 8.74c-7.52-5.18-15.52-8.74-26.24-10.53V215H604v12.8c-8 1.78-16.16 5.18-23.2 9.88l-8-8.26-18.72 18.95 8.16 7.78c-5.44 7.94-9.12 18.14-10.88 26.24H540v27.05h11.68c1.76 10.85 5.28 17.5 10.24 24.94l-8.64 8.9L572 362.42l8.16-8.75c7.2 4.86 15.84 8.6 23.84 10.37V377h26.56v-12.64c10.72-1.78 19.04-5.67 26.88-11l9.28 9.06 18.88-18.95-9.28-9.72c4.8-7.13 8.16-16.2 9.92-24.3H700zm-80.96 36.6c-27.04 0-48.8-22.02-48.8-49.4 0-27.22 21.76-49.25 48.8-49.25 26.88 0 48.64 22.03 48.64 49.25 0 27.38-21.76 49.4-48.64 49.4z" fill="#fcc438"/><use xlink:href="#c" transform="translate(620 372.4)"/><path d="M578.27 283c0-2.76 2.24-5 5-5h73.46c2.76 0 5 2.24 5 5v26c0 2.76-2.24 5-5 5h-73.46c-2.76 0-5-2.24-5-5z" fill="none"/><use xlink:href="#d" transform="translate(578.55 292.4)"/><use xlink:href="#e" transform="translate(590.35 314)"/><path d="M700 296h60" stroke="#fcc438" stroke-width="2" fill="none"/><path d="M700 297v-2zm60-1l-14.27 4.64v-9.28z" fill="#fcc438"/><path d="M760 294.95v2.1L744.73 302v-12zm-13.27 4.3l10.03-3.25-10.03-3.26z" fill="#fcc438"/><path d="M482 296c0 38.66-31.34 70-70 70s-70-31.34-70-70 31.34-70 70-70 70 31.34 70 70z" fill="#ccc"/><use xlink:href="#f" transform="translate(375.575 299.6)"/><path d="M758.55 47c0-2.76 2.24-5 5-5H895c2.76 0 5 2.24 5 5v50c0 2.76-2.24 5-5 5H763.55c-2.76 0-5-2.24-5-5z" fill="none"/><use xlink:href="#g" transform="translate(807.525 76.889)"/><path d="M380 153c0 22.1-17.9 40-40 40s-40-17.9-40-40 17.9-40 40-40 40 17.9 40 40z" fill="#ccc"/><use xlink:href="#h" transform="translate(318.185 155.667)"/><path d="M300 213c0 11.05-8.95 20-20 20s-20-8.95-20-20 8.95-20 20-20 20 8.95 20 20z" fill="#ccc"/><use xlink:href="#i" transform="translate(264.5 215.667)"/><path d="M363.16 185.53l26.42 44.18m-91.68-7.99l17.97 8 41.36 22.75" stroke="#ccc" stroke-width="2" fill="none"/><path d="M298.3 220.8l-.4.94.37-.95zM315 308c0 22.1-17.9 40-40 40s-40-17.9-40-40 17.9-40 40-40 40 17.9 40 40z" fill="#ccc"/><use xlink:href="#j" transform="translate(255.778 310.667)"/><path d="M315 308h28.07" stroke="#ccc" stroke-width="2" fill="none"/><path d="M315 309h-.06l.06-1-.04-1h.04z" fill="#ccc"/><use xlink:href="#c" transform="translate(962.333 707.767)"/><use xlink:href="#c" transform="translate(20 25.4)"/><defs><path fill="#222" d="M30-248c118-7 216 8 213 122C240-48 200 0 122 0H30v-248zM63-27c89 8 146-16 146-99s-60-101-146-95v194" id="k"/><path fill="#222" d="M141-36C126-15 110 5 73 4 37 3 15-17 15-53c-1-64 63-63 125-63 3-35-9-54-41-54-24 1-41 7-42 31l-33-3c5-37 33-52 76-52 45 0 72 20 72 64v82c-1 20 7 32 28 27v20c-31 9-61-2-59-35zM48-53c0 20 12 33 32 33 41-3 63-29 60-74-43 2-92-5-92 41" id="l"/><path fill="#222" d="M59-47c-2 24 18 29 38 22v24C64 9 27 4 27-40v-127H5v-23h24l9-43h21v43h35v23H59v120" id="m"/><g id="a"><use transform="scale(.05)" xlink:href="#k"/><use transform="translate(12.95) scale(.05)" xlink:href="#l"/><use transform="translate(22.95) scale(.05)" xlink:href="#m"/><use transform="translate(27.95) scale(.05)" xlink:href="#l"/></g><path d="M197 0v-115H63V0H30v-248h33v105h134v-105h34V0h-34" id="n"/><path d="M127-220V0H93v-220H8v-28h204v28h-85" id="o"/><path d="M240 0l2-218c-23 76-54 145-80 218h-23L58-218 59 0H30v-248h44l77 211c21-75 51-140 76-211h43V0h-30" id="p"/><path d="M30 0v-248h33v221h125V0H30" id="q"/><path d="M16-82v-28h88v28H16" id="r"/><path d="M30-248c87 1 191-15 191 75 0 78-77 80-158 76V0H30v-248zm33 125c57 0 124 11 124-50 0-59-68-47-124-48v98" id="s"/><path d="M205 0l-28-72H64L36 0H1l101-248h38L239 0h-34zm-38-99l-47-123c-12 45-31 82-46 123h93" id="t"/><path d="M143 4C61 4 22-44 18-125c-5-107 100-154 193-111 17 8 29 25 37 43l-32 9c-13-25-37-40-76-40-61 0-88 39-88 99 0 61 29 100 91 101 35 0 62-11 79-27v-45h-74v-28h105v86C228-13 192 4 143 4" id="u"/><path d="M30 0v-248h187v28H63v79h144v27H63v87h162V0H30" id="v"/><g id="b"><use transform="scale(.05)" xlink:href="#n"/><use transform="translate(12.95) scale(.05)" xlink:href="#o"/><use transform="translate(23.9) scale(.05)" xlink:href="#p"/><use transform="translate(38.85) scale(.05)" xlink:href="#q"/><use transform="translate(48.85) scale(.05)" xlink:href="#r"/><use transform="translate(54.8) scale(.05)" xlink:href="#s"/><use transform="translate(65.45) scale(.05)" xlink:href="#t"/><use transform="translate(77.45) scale(.05)" xlink:href="#u"/><use transform="translate(91.45) scale(.05)" xlink:href="#v"/></g><path fill="#ccc" d="M136-208V0H84v-208H4v-40h212v40h-80" id="w"/><path fill="#ccc" d="M185-48c-13 30-37 53-82 52C43 2 14-33 14-96s30-98 90-98c62 0 83 45 84 108H66c0 31 8 55 39 56 18 0 30-7 34-22zm-45-69c5-46-57-63-70-21-2 6-4 13-4 21h74" id="x"/><path fill="#ccc" d="M220-157c-53 9-28 100-34 157h-49v-107c1-27-5-49-29-50C55-147 81-57 75 0H25l-1-190h47c2 12-1 28 3 38 10-53 101-56 108 0 13-22 24-43 59-42 82 1 51 116 57 194h-49v-107c-1-25-5-48-29-50" id="y"/><path fill="#ccc" d="M135-194c53 0 70 44 70 98 0 56-19 98-73 100-31 1-45-17-59-34 3 33 2 69 2 105H25l-1-265h48c2 10 0 23 3 31 11-24 29-35 60-35zM114-30c33 0 39-31 40-66 0-38-9-64-40-64-56 0-55 130 0 130" id="z"/><path fill="#ccc" d="M25 0v-261h50V0H25" id="A"/><path fill="#ccc" d="M133-34C117-15 103 5 69 4 32 3 11-16 11-54c-1-60 55-63 116-61 1-26-3-47-28-47-18 1-26 9-28 27l-52-2c7-38 36-58 82-57s74 22 75 68l1 82c-1 14 12 18 25 15v27c-30 8-71 5-69-32zm-48 3c29 0 43-24 42-57-32 0-66-3-65 30 0 17 8 27 23 27" id="B"/><path fill="#ccc" d="M115-3C79 11 28 4 28-45v-112H4v-33h27l15-45h31v45h36v33H77v99c-1 23 16 31 38 25v30" id="C"/><path fill="#ccc" d="M14-72v-43h91v43H14" id="D"/><g id="d"><use transform="scale(.05)" xlink:href="#w"/><use transform="translate(9.6) scale(.05)" xlink:href="#x"/><use transform="translate(19.6) scale(.05)" xlink:href="#y"/><use transform="translate(35.6) scale(.05)" xlink:href="#z"/><use transform="translate(46.55) scale(.05)" xlink:href="#A"/><use transform="translate(51.55) scale(.05)" xlink:href="#B"/><use transform="translate(61.55) scale(.05)" xlink:href="#C"/><use transform="translate(67.5) scale(.05)" xlink:href="#x"/><use transform="translate(77.5) scale(.05)" xlink:href="#D"/></g><path fill="#ccc" d="M24 0v-248h195v40H76v63h132v40H76v65h150V0H24" id="E"/><path fill="#ccc" d="M135-194c87-1 58 113 63 194h-50c-7-57 23-157-34-157-59 0-34 97-39 157H25l-1-190h47c2 12-1 28 3 38 12-26 28-41 61-42" id="F"/><path fill="#ccc" d="M195-6C206 82 75 100 31 46c-4-6-6-13-8-21l49-6c3 16 16 24 34 25 40 0 42-37 40-79-11 22-30 35-61 35-53 0-70-43-70-97 0-56 18-96 73-97 30 0 46 14 59 34l2-30h47zm-90-29c32 0 41-27 41-63 0-35-9-62-40-62-32 0-39 29-40 63 0 36 9 62 39 62" id="G"/><path fill="#ccc" d="M25-224v-37h50v37H25zM25 0v-190h50V0H25" id="H"/><g id="e"><use transform="scale(.05)" xlink:href="#E"/><use transform="translate(12) scale(.05)" xlink:href="#F"/><use transform="translate(22.95) scale(.05)" xlink:href="#G"/><use transform="translate(33.9) scale(.05)" xlink:href="#H"/><use transform="translate(38.9) scale(.05)" xlink:href="#F"/><use transform="translate(49.85) scale(.05)" xlink:href="#x"/></g><path d="M100-194c63 0 86 42 84 106H49c0 40 14 67 53 68 26 1 43-12 49-29l28 8c-11 28-37 45-77 45C44 4 14-33 15-96c1-61 26-98 85-98zm52 81c6-60-76-77-97-28-3 7-6 17-6 28h103" id="I"/><path d="M210-169c-67 3-38 105-44 169h-31v-121c0-29-5-50-35-48C34-165 62-65 56 0H25l-1-190h30c1 10-1 24 2 32 10-44 99-50 107 0 11-21 27-35 58-36 85-2 47 119 55 194h-31v-121c0-29-5-49-35-48" id="J"/><path d="M115-194c55 1 70 41 70 98S169 2 115 4C84 4 66-9 55-30l1 105H24l-1-265h31l2 30c10-21 28-34 59-34zm-8 174c40 0 45-34 45-75s-6-73-45-74c-42 0-51 32-51 76 0 43 10 73 51 73" id="K"/><path d="M24 0v-261h32V0H24" id="L"/><path d="M141-36C126-15 110 5 73 4 37 3 15-17 15-53c-1-64 63-63 125-63 3-35-9-54-41-54-24 1-41 7-42 31l-33-3c5-37 33-52 76-52 45 0 72 20 72 64v82c-1 20 7 32 28 27v20c-31 9-61-2-59-35zM48-53c0 20 12 33 32 33 41-3 63-29 60-74-43 2-92-5-92 41" id="M"/><path d="M59-47c-2 24 18 29 38 22v24C64 9 27 4 27-40v-127H5v-23h24l9-43h21v43h35v23H59v120" id="N"/><g id="f"><use transform="scale(.05)" xlink:href="#o"/><use transform="translate(8.95) scale(.05)" xlink:href="#I"/><use transform="translate(18.95) scale(.05)" xlink:href="#J"/><use transform="translate(33.9) scale(.05)" xlink:href="#K"/><use transform="translate(43.9) scale(.05)" xlink:href="#L"/><use transform="translate(47.85) scale(.05)" xlink:href="#M"/><use transform="translate(57.85) scale(.05)" xlink:href="#N"/><use transform="translate(62.85) scale(.05)" xlink:href="#I"/></g><path fill="#fcc438" d="M275 0h-61l-44-196L126 0H64L0-248h53L97-49l45-199h58l43 199 44-199h52" id="O"/><path fill="#fcc438" d="M185-48c-13 30-37 53-82 52C43 2 14-33 14-96s30-98 90-98c62 0 83 45 84 108H66c0 31 8 55 39 56 18 0 30-7 34-22zm-45-69c5-46-57-63-70-21-2 6-4 13-4 21h74" id="P"/><path fill="#fcc438" d="M135-194c52 0 70 43 70 98 0 56-19 99-73 100-30 1-46-15-58-35L72 0H24l1-261h50v104c11-23 29-37 60-37zM114-30c31 0 40-27 40-66 0-37-7-63-39-63s-41 28-41 65c0 36 8 64 40 64" id="Q"/><path fill="#fcc438" d="M137-138c1-29-70-34-71-4 15 46 118 7 119 86 1 83-164 76-172 9l43-7c4 19 20 25 44 25 33 8 57-30 24-41C81-84 22-81 20-136c-2-80 154-74 161-7" id="R"/><path fill="#fcc438" d="M25-224v-37h50v37H25zM25 0v-190h50V0H25" id="S"/><path fill="#fcc438" d="M115-3C79 11 28 4 28-45v-112H4v-33h27l15-45h31v45h36v33H77v99c-1 23 16 31 38 25v30" id="T"/><g id="g"><use transform="scale(.0679)" xlink:href="#O"/><use transform="translate(22.543) scale(.0679)" xlink:href="#P"/><use transform="translate(36.123) scale(.0679)" xlink:href="#Q"/><use transform="translate(50.994) scale(.0679)" xlink:href="#R"/><use transform="translate(64.574) scale(.0679)" xlink:href="#S"/><use transform="translate(71.364) scale(.0679)" xlink:href="#T"/><use transform="translate(79.444) scale(.0679)" xlink:href="#P"/></g><path d="M85-194c31 0 48 13 60 33l-1-100h32l1 261h-30c-2-10 0-23-3-31C134-8 116 4 85 4 32 4 16-35 15-94c0-66 23-100 70-100zm9 24c-40 0-46 34-46 75 0 40 6 74 45 74 42 0 51-32 51-76 0-42-9-74-50-73" id="U"/><path d="M114-163C36-179 61-72 57 0H25l-1-190h30c1 12-1 29 2 39 6-27 23-49 58-41v29" id="V"/><g id="h"><use transform="scale(.03704)" xlink:href="#n"/><use transform="matrix(.03704 0 0 .03704 9.593 0)" xlink:href="#I"/><use transform="matrix(.03704 0 0 .03704 17 0)" xlink:href="#M"/><use transform="matrix(.03704 0 0 .03704 24.407 0)" xlink:href="#U"/><use transform="matrix(.03704 0 0 .03704 31.815 0)" xlink:href="#I"/><use transform="matrix(.03704 0 0 .03704 39.222 0)" xlink:href="#V"/></g><path d="M63-220v92h138v28H63V0H30v-248h175v28H63" id="W"/><path d="M100-194c62-1 85 37 85 99 1 63-27 99-86 99S16-35 15-95c0-66 28-99 85-99zM99-20c44 1 53-31 53-75 0-43-8-75-51-75s-53 32-53 75 10 74 51 75" id="X"/><g id="i"><use transform="scale(.03704)" xlink:href="#W"/><use transform="matrix(.03704 0 0 .03704 8.111 0)" xlink:href="#X"/><use transform="matrix(.03704 0 0 .03704 15.519 0)" xlink:href="#V"/><use transform="matrix(.03704 0 0 .03704 19.926 0)" xlink:href="#J"/></g><g id="j"><use transform="scale(.03704)" xlink:href="#W"/><use transform="matrix(.03704 0 0 .03704 8.111 0)" xlink:href="#X"/><use transform="matrix(.03704 0 0 .03704 15.519 0)" xlink:href="#X"/><use transform="matrix(.03704 0 0 .03704 22.926 0)" xlink:href="#N"/><use transform="matrix(.03704 0 0 .03704 26.63 0)" xlink:href="#I"/><use transform="matrix(.03704 0 0 .03704 34.037 0)" xlink:href="#V"/></g></defs></g></svg>